<svg xmlns="http://www.w3.org/2000/svg" width="670" height="328" viewBox="0 0 670 328" fill="none">
<g clip-path="url(#clip0_910_4000)">
<path d="M505.421 109.164C514.969 109.164 524.366 113.517 524.357 123.929C524.349 133.531 513.231 137.223 510.841 140.693C509.046 143.273 509.642 146.9 504.718 146.9C501.511 146.9 499.946 144.317 499.948 141.954C499.956 133.161 513.009 131.171 513.015 123.931C513.018 119.945 510.341 117.582 505.863 117.582C496.314 117.582 500.035 127.327 492.803 127.327C490.192 127.327 487.953 125.776 487.955 122.824C487.96 115.582 496.318 109.164 505.421 109.164ZM505.013 151.694C508.365 151.694 511.128 154.422 511.125 157.751C511.123 161.079 508.36 163.808 505.003 163.808C501.646 163.808 498.886 161.083 498.889 157.751C498.892 154.424 501.656 151.694 505.013 151.694Z" fill="#D1D5DB"/>
<path d="M478.559 149.645C469.01 149.645 459.614 145.292 459.623 134.88C459.631 125.278 470.749 121.585 473.139 118.116C474.933 115.535 474.338 111.909 479.261 111.909C482.469 111.909 484.033 114.491 484.031 116.854C484.024 125.647 470.971 127.637 470.965 134.878C470.961 138.863 473.639 141.226 478.117 141.226C487.665 141.226 483.945 131.482 491.177 131.482C493.787 131.482 496.027 133.032 496.024 135.984C496.02 143.227 487.662 149.645 478.559 149.645ZM478.966 107.115C475.614 107.115 472.851 104.386 472.854 101.058C472.857 97.7294 475.619 95.0006 478.976 95.0006C482.334 95.0006 485.093 97.726 485.09 101.058C485.088 104.384 482.323 107.115 478.966 107.115Z" fill="#E5E7EB"/>
<path d="M424.468 109.164C434.016 109.164 443.413 113.517 443.404 123.929C443.396 133.531 432.278 137.223 429.888 140.693C428.093 143.273 428.689 146.9 423.765 146.9C420.558 146.9 418.993 144.317 418.995 141.954C419.003 133.161 432.056 131.171 432.062 123.931C432.065 119.945 429.388 117.582 424.909 117.582C415.361 117.582 419.081 127.327 411.85 127.327C409.239 127.327 407 125.776 407.002 122.824C407.006 115.582 415.365 109.164 424.468 109.164ZM424.06 151.694C427.412 151.694 430.175 154.422 430.172 157.751C430.169 161.079 427.407 163.808 424.05 163.808C420.693 163.808 417.933 161.083 417.936 157.751C417.939 154.424 420.703 151.694 424.06 151.694Z" fill="#D1D5DB"/>
<path d="M397.606 149.645C388.057 149.645 378.661 145.292 378.669 134.88C378.678 125.278 389.796 121.585 392.186 118.116C393.98 115.535 393.385 111.909 398.308 111.909C401.516 111.909 403.08 114.491 403.078 116.854C403.071 125.647 390.018 127.637 390.011 134.878C390.008 138.863 392.685 141.226 397.164 141.226C406.712 141.226 402.992 131.482 410.223 131.482C412.834 131.482 415.074 133.032 415.071 135.984C415.067 143.227 406.708 149.645 397.606 149.645ZM398.013 107.115C394.661 107.115 391.898 104.386 391.901 101.058C391.904 97.7294 394.666 95.0006 398.023 95.0006C401.38 95.0006 404.14 97.726 404.137 101.058C404.134 104.384 401.37 107.115 398.013 107.115Z" fill="#E5E7EB"/>
<path d="M479.112 52.498C488.661 52.498 498.057 56.851 498.048 67.263C498.04 76.8646 486.922 80.5572 484.532 84.0266C482.738 86.6074 483.333 90.2337 478.41 90.2337C475.202 90.2337 473.638 87.6512 473.64 85.2883C473.647 76.4952 486.7 74.5052 486.706 67.2647C486.71 63.2794 484.032 60.9165 479.554 60.9165C470.006 60.9165 473.726 70.661 466.494 70.661C463.884 70.661 461.644 69.1101 461.647 66.1582C461.651 58.916 470.009 52.498 479.112 52.498ZM478.705 95.0276C482.056 95.0276 484.82 97.7565 484.817 101.085C484.814 104.413 482.051 107.142 478.694 107.142C475.337 107.142 472.578 104.417 472.581 101.085C472.583 97.7582 475.348 95.0276 478.705 95.0276Z" fill="#D1D5DB"/>
<path d="M452.25 92.9785C442.702 92.9785 433.305 88.6255 433.314 78.2136C433.322 68.6119 444.44 64.9194 446.83 61.4499C448.624 58.8692 448.029 55.2428 452.953 55.2428C456.16 55.2428 457.725 57.8253 457.723 60.1883C457.715 68.9814 444.662 70.9714 444.656 78.2118C444.653 82.1971 447.33 84.5601 451.808 84.5601C461.357 84.5601 457.636 74.8156 464.868 74.8156C467.479 74.8156 469.718 76.3665 469.716 79.3184C469.711 86.5606 461.353 92.9785 452.25 92.9785ZM452.658 50.449C449.306 50.449 446.543 47.7201 446.545 44.3918C446.548 41.0634 449.311 38.3345 452.668 38.3345C456.025 38.3345 458.785 41.0599 458.782 44.3918C458.779 47.7184 456.015 50.449 452.658 50.449Z" fill="#E5E7EB"/>
<path d="M398.156 52.498C407.704 52.498 417.101 56.851 417.092 67.263C417.084 76.8646 405.966 80.5572 403.576 84.0266C401.782 86.6074 402.377 90.2337 397.453 90.2337C394.246 90.2337 392.682 87.6512 392.684 85.2883C392.691 76.4952 405.744 74.5052 405.75 67.2647C405.754 63.2794 403.076 60.9165 398.598 60.9165C389.05 60.9165 392.77 70.661 385.538 70.661C382.928 70.661 380.688 69.1101 380.691 66.1582C380.695 58.916 389.053 52.498 398.156 52.498ZM397.749 95.0276C401.1 95.0276 403.864 97.7565 403.861 101.085C403.858 104.413 401.095 107.142 397.738 107.142C394.381 107.142 391.622 104.417 391.624 101.085C391.627 97.7582 394.392 95.0276 397.749 95.0276Z" fill="#D1D5DB"/>
<path d="M371.294 92.9785C361.746 92.9785 352.349 88.6255 352.358 78.2136C352.366 68.6119 363.484 64.9194 365.874 61.4499C367.668 58.8692 367.073 55.2428 371.997 55.2428C375.204 55.2428 376.769 57.8253 376.767 60.1883C376.759 68.9814 363.706 70.9714 363.7 78.2118C363.697 82.1971 366.374 84.5601 370.852 84.5601C380.4 84.5601 376.68 74.8156 383.912 74.8156C386.523 74.8156 388.762 76.3665 388.76 79.3184C388.755 86.5606 380.397 92.9785 371.294 92.9785ZM371.702 50.449C368.35 50.449 365.587 47.7201 365.589 44.3918C365.592 41.0634 368.355 38.3345 371.712 38.3345C375.069 38.3345 377.829 41.0599 377.826 44.3918C377.823 47.7184 375.059 50.449 371.702 50.449Z" fill="#E5E7EB"/>
<path d="M425.939 36.3105C416.39 36.3105 406.994 31.9576 407.002 21.5456C407.011 11.944 418.129 8.25144 420.519 4.78195C422.313 2.20119 421.718 -1.42513 426.641 -1.42513C429.849 -1.42513 431.413 1.15738 431.411 3.52032C431.404 12.3134 418.351 14.3034 418.344 21.5439C418.341 25.5292 421.018 27.8921 425.497 27.8921C435.045 27.8921 431.325 18.1476 438.556 18.1476C441.167 18.1476 443.407 19.6985 443.404 22.6504C443.4 29.8926 435.041 36.3105 425.939 36.3105ZM426.346 -6.21898C422.994 -6.21898 420.231 -8.94787 420.234 -12.2762C420.237 -15.6045 422.999 -18.3334 426.356 -18.3334C429.713 -18.3334 432.473 -15.608 432.47 -12.2762C432.467 -8.94962 429.703 -6.21898 426.346 -6.21898Z" fill="#E5E7EB"/>
<path d="M452.801 -4.16992C462.349 -4.16992 471.746 0.183055 471.737 10.595C471.729 20.1966 460.611 23.8892 458.221 27.3587C456.426 29.9394 457.022 33.5658 452.098 33.5658C448.891 33.5658 447.326 30.9832 447.328 28.6203C447.336 19.8272 460.389 17.8372 460.395 10.5967C460.398 6.61145 457.721 4.24851 453.242 4.24851C443.694 4.24851 447.414 13.993 440.183 13.993C437.572 13.993 435.333 12.4421 435.335 9.4902C435.339 2.24802 443.698 -4.16992 452.801 -4.16992ZM452.393 38.3596C455.745 38.3596 458.508 41.0885 458.505 44.4168C458.502 47.7452 455.74 50.4741 452.383 50.4741C449.026 50.4741 446.266 47.7487 446.269 44.4168C446.272 41.0902 449.036 38.3596 452.393 38.3596Z" fill="#D1D5DB"/>
<path d="M344.984 36.3105C335.436 36.3105 326.039 31.9576 326.048 21.5456C326.056 11.944 337.175 8.25144 339.565 4.78195C341.359 2.20119 340.763 -1.42513 345.687 -1.42513C348.895 -1.42513 350.459 1.15738 350.457 3.52032C350.45 12.3134 337.397 14.3034 337.39 21.5439C337.387 25.5292 340.064 27.8921 344.543 27.8921C354.091 27.8921 350.371 18.1476 357.602 18.1476C360.213 18.1476 362.453 19.6985 362.45 22.6504C362.446 29.8926 354.087 36.3105 344.984 36.3105ZM345.392 -6.21898C342.04 -6.21898 339.277 -8.94787 339.28 -12.2762C339.283 -15.6045 342.045 -18.3334 345.402 -18.3334C348.759 -18.3334 351.519 -15.608 351.516 -12.2762C351.513 -8.94962 348.749 -6.21898 345.392 -6.21898Z" fill="#E5E7EB"/>
<path d="M371.847 -4.16992C381.395 -4.16992 390.792 0.183055 390.783 10.595C390.775 20.1966 379.656 23.8892 377.266 27.3587C375.472 29.9394 376.068 33.5658 371.144 33.5658C367.936 33.5658 366.372 30.9832 366.374 28.6203C366.381 19.8272 379.435 17.8372 379.441 10.5967C379.444 6.61145 376.767 4.24851 372.288 4.24851C362.74 4.24851 366.46 13.993 359.229 13.993C356.618 13.993 354.378 12.4421 354.381 9.4902C354.385 2.24802 362.744 -4.16992 371.847 -4.16992ZM371.439 38.3596C374.791 38.3596 377.554 41.0885 377.551 44.4168C377.548 47.7452 374.786 50.4741 371.429 50.4741C368.072 50.4741 365.312 47.7487 365.315 44.4168C365.318 41.0902 368.082 38.3596 371.439 38.3596Z" fill="#D1D5DB"/>
<path d="M667.33 109.164C676.878 109.164 686.275 113.517 686.266 123.929C686.258 133.531 675.14 137.223 672.75 140.693C670.956 143.273 671.551 146.9 666.627 146.9C663.42 146.9 661.855 144.317 661.857 141.954C661.865 133.161 674.918 131.171 674.924 123.931C674.927 119.945 672.25 117.582 667.772 117.582C658.224 117.582 661.944 127.327 654.712 127.327C652.101 127.327 649.862 125.776 649.864 122.824C649.869 115.582 658.227 109.164 667.33 109.164ZM666.922 151.694C670.274 151.694 673.037 154.422 673.035 157.751C673.032 161.079 670.269 163.808 666.912 163.808C663.555 163.808 660.795 161.083 660.798 157.751C660.801 154.424 663.565 151.694 666.922 151.694Z" fill="#D1D5DB"/>
<path d="M640.468 149.645C630.92 149.645 621.523 145.292 621.532 134.88C621.54 125.278 632.658 121.585 635.048 118.116C636.842 115.535 636.247 111.909 641.171 111.909C644.378 111.909 645.942 114.491 645.94 116.854C645.933 125.647 632.88 127.637 632.874 134.878C632.87 138.863 635.548 141.226 640.026 141.226C649.574 141.226 645.854 131.482 653.086 131.482C655.696 131.482 657.936 133.032 657.933 135.984C657.929 143.227 649.571 149.645 640.468 149.645ZM640.875 107.115C637.524 107.115 634.76 104.386 634.763 101.058C634.766 97.7294 637.529 95.0006 640.886 95.0006C644.243 95.0006 647.002 97.726 647 101.058C646.997 104.384 644.232 107.115 640.875 107.115Z" fill="#E5E7EB"/>
<path d="M586.374 109.164C595.922 109.164 605.319 113.517 605.31 123.929C605.302 133.531 594.184 137.223 591.794 140.693C590 143.273 590.595 146.9 585.671 146.9C582.464 146.9 580.899 144.317 580.901 141.954C580.909 133.161 593.962 131.171 593.968 123.931C593.971 119.945 591.294 117.582 586.816 117.582C577.267 117.582 580.988 127.327 573.756 127.327C571.145 127.327 568.906 125.776 568.908 122.824C568.913 115.582 577.271 109.164 586.374 109.164ZM585.966 151.694C589.318 151.694 592.081 154.422 592.079 157.751C592.076 161.079 589.313 163.808 585.956 163.808C582.599 163.808 579.839 161.083 579.842 157.751C579.845 154.424 582.609 151.694 585.966 151.694Z" fill="#D1D5DB"/>
<path d="M559.512 149.645C549.964 149.645 540.567 145.292 540.576 134.88C540.584 125.278 551.702 121.585 554.092 118.116C555.886 115.535 555.291 111.909 560.215 111.909C563.422 111.909 564.986 114.491 564.984 116.854C564.977 125.647 551.924 127.637 551.918 134.878C551.914 138.863 554.592 141.226 559.07 141.226C568.618 141.226 564.898 131.482 572.13 131.482C574.74 131.482 576.98 133.032 576.977 135.984C576.973 143.227 568.615 149.645 559.512 149.645ZM559.919 107.115C556.568 107.115 553.804 104.386 553.807 101.058C553.81 97.7294 556.573 95.0006 559.93 95.0006C563.287 95.0006 566.046 97.726 566.044 101.058C566.041 104.384 563.276 107.115 559.919 107.115Z" fill="#E5E7EB"/>
<path d="M641.019 52.498C650.568 52.498 659.964 56.851 659.956 67.263C659.947 76.8646 648.829 80.5572 646.439 84.0266C644.645 86.6074 645.24 90.2337 640.317 90.2337C637.109 90.2337 635.545 87.6512 635.547 85.2883C635.554 76.4952 648.607 74.5052 648.614 67.2647C648.617 63.2794 645.94 60.9165 641.461 60.9165C631.913 60.9165 635.633 70.661 628.402 70.661C625.791 70.661 623.551 69.1101 623.554 66.1582C623.558 58.916 631.917 52.498 641.019 52.498ZM640.612 95.0276C643.964 95.0276 646.727 97.7565 646.724 101.085C646.721 104.413 643.959 107.142 640.602 107.142C637.245 107.142 634.485 104.417 634.488 101.085C634.491 97.7582 637.255 95.0276 640.612 95.0276Z" fill="#D1D5DB"/>
<path d="M614.157 92.9785C604.609 92.9785 595.212 88.6255 595.221 78.2136C595.229 68.6119 606.347 64.9194 608.737 61.4499C610.532 58.8692 609.936 55.2428 614.86 55.2428C618.067 55.2428 619.632 57.8253 619.63 60.1883C619.622 68.9814 606.569 70.9714 606.563 78.2118C606.56 82.1971 609.237 84.5601 613.716 84.5601C623.264 84.5601 619.544 74.8156 626.775 74.8156C629.386 74.8156 631.625 76.3665 631.623 79.3184C631.619 86.5606 623.26 92.9785 614.157 92.9785ZM614.565 50.449C611.213 50.449 608.45 47.7201 608.453 44.3918C608.456 41.0634 611.218 38.3345 614.575 38.3345C617.932 38.3345 620.692 41.0599 620.689 44.3918C620.686 47.7184 617.922 50.449 614.565 50.449Z" fill="#E5E7EB"/>
<path d="M560.065 52.498C569.614 52.498 579.01 56.851 579.001 67.263C578.993 76.8646 567.875 80.5572 565.485 84.0266C563.691 86.6074 564.286 90.2337 559.363 90.2337C556.155 90.2337 554.591 87.6512 554.593 85.2883C554.6 76.4952 567.653 74.5052 567.659 67.2647C567.663 63.2794 564.986 60.9165 560.507 60.9165C550.959 60.9165 554.679 70.661 547.447 70.661C544.837 70.661 542.597 69.1101 542.6 66.1582C542.604 58.916 550.963 52.498 560.065 52.498ZM559.658 95.0276C563.01 95.0276 565.773 97.7565 565.77 101.085C565.767 104.413 563.005 107.142 559.648 107.142C556.291 107.142 553.531 104.417 553.534 101.085C553.536 97.7582 556.301 95.0276 559.658 95.0276Z" fill="#D1D5DB"/>
<path d="M533.203 92.9785C523.655 92.9785 514.258 88.6255 514.267 78.2136C514.275 68.6119 525.393 64.9194 527.783 61.4499C529.578 58.8692 528.982 55.2428 533.906 55.2428C537.113 55.2428 538.678 57.8253 538.676 60.1883C538.668 68.9814 525.615 70.9714 525.609 78.2118C525.606 82.1971 528.283 84.5601 532.761 84.5601C542.31 84.5601 538.589 74.8156 545.821 74.8156C548.432 74.8156 550.671 76.3665 550.669 79.3184C550.664 86.5606 542.306 92.9785 533.203 92.9785ZM533.611 50.449C530.259 50.449 527.496 47.7201 527.499 44.3918C527.501 41.0634 530.264 38.3345 533.621 38.3345C536.978 38.3345 539.738 41.0599 539.735 44.3918C539.732 47.7184 536.968 50.449 533.611 50.449Z" fill="#E5E7EB"/>
<path d="M587.849 36.3105C578.3 36.3105 568.904 31.9576 568.913 21.5456C568.921 11.944 580.039 8.25144 582.429 4.78195C584.223 2.20119 583.628 -1.42513 588.551 -1.42513C591.759 -1.42513 593.323 1.15738 593.321 3.52032C593.314 12.3134 580.261 14.3034 580.255 21.5439C580.251 25.5292 582.929 27.8921 587.407 27.8921C596.955 27.8921 593.235 18.1476 600.467 18.1476C603.077 18.1476 605.317 19.6985 605.314 22.6504C605.31 29.8926 596.952 36.3105 587.849 36.3105ZM588.256 -6.21898C584.904 -6.21898 582.141 -8.94787 582.144 -12.2762C582.147 -15.6045 584.91 -18.3334 588.267 -18.3334C591.624 -18.3334 594.383 -15.608 594.38 -12.2762C594.378 -8.94962 591.613 -6.21898 588.256 -6.21898Z" fill="#E5E7EB"/>
<path d="M614.711 -4.16992C624.259 -4.16992 633.656 0.183055 633.647 10.595C633.639 20.1966 622.521 23.8892 620.131 27.3587C618.336 29.9394 618.932 33.5658 614.008 33.5658C610.801 33.5658 609.236 30.9832 609.238 28.6203C609.246 19.8272 622.299 17.8372 622.305 10.5967C622.308 6.61145 619.631 4.24851 615.153 4.24851C605.604 4.24851 609.325 13.993 602.093 13.993C599.482 13.993 597.243 12.4421 597.245 9.4902C597.25 2.24802 605.608 -4.16992 614.711 -4.16992ZM614.303 38.3596C617.655 38.3596 620.418 41.0885 620.415 44.4168C620.413 47.7452 617.65 50.4741 614.293 50.4741C610.936 50.4741 608.176 47.7487 608.179 44.4168C608.182 41.0902 610.946 38.3596 614.303 38.3596Z" fill="#D1D5DB"/>
<path d="M506.891 36.3105C497.342 36.3105 487.946 31.9576 487.955 21.5456C487.963 11.944 499.081 8.25144 501.471 4.78195C503.265 2.20119 502.67 -1.42513 507.593 -1.42513C510.801 -1.42513 512.365 1.15738 512.363 3.52032C512.356 12.3134 499.303 14.3034 499.297 21.5439C499.293 25.5292 501.971 27.8921 506.449 27.8921C515.997 27.8921 512.277 18.1476 519.509 18.1476C522.119 18.1476 524.359 19.6985 524.356 22.6504C524.352 29.8926 515.994 36.3105 506.891 36.3105ZM507.298 -6.21898C503.946 -6.21898 501.183 -8.94787 501.186 -12.2762C501.189 -15.6045 503.951 -18.3334 507.309 -18.3334C510.666 -18.3334 513.425 -15.608 513.422 -12.2762C513.42 -8.94962 510.655 -6.21898 507.298 -6.21898Z" fill="#E5E7EB"/>
<path d="M533.753 -4.16992C543.301 -4.16992 552.698 0.183055 552.689 10.595C552.681 20.1966 541.563 23.8892 539.173 27.3587C537.378 29.9394 537.974 33.5658 533.05 33.5658C529.843 33.5658 528.278 30.9832 528.28 28.6203C528.288 19.8272 541.341 17.8372 541.347 10.5967C541.35 6.61145 538.673 4.24851 534.195 4.24851C524.646 4.24851 528.367 13.993 521.135 13.993C518.524 13.993 516.285 12.4421 516.287 9.4902C516.292 2.24802 524.65 -4.16992 533.753 -4.16992ZM533.345 38.3596C536.697 38.3596 539.46 41.0885 539.457 44.4168C539.455 47.7452 536.692 50.4741 533.335 50.4741C529.978 50.4741 527.218 47.7487 527.221 44.4168C527.224 41.0902 529.988 38.3596 533.345 38.3596Z" fill="#D1D5DB"/>
<path d="M668.801 36.3105C659.253 36.3105 649.856 31.9576 649.865 21.5456C649.873 11.944 660.991 8.25144 663.381 4.78195C665.175 2.20119 664.58 -1.42513 669.504 -1.42513C672.711 -1.42513 674.276 1.15738 674.273 3.52032C674.266 12.3134 661.213 14.3034 661.207 21.5439C661.203 25.5292 663.881 27.8921 668.359 27.8921C677.907 27.8921 674.187 18.1476 681.419 18.1476C684.029 18.1476 686.269 19.6985 686.266 22.6504C686.262 29.8926 677.904 36.3105 668.801 36.3105ZM669.208 -6.21898C665.857 -6.21898 663.093 -8.94787 663.096 -12.2762C663.099 -15.6045 665.862 -18.3334 669.219 -18.3334C672.576 -18.3334 675.335 -15.608 675.333 -12.2762C675.33 -8.94962 672.565 -6.21898 669.208 -6.21898Z" fill="#E5E7EB"/>
<path d="M19.6923 109.164C29.2406 109.164 38.6373 113.517 38.6284 123.929C38.6203 133.531 27.5022 137.223 25.1121 140.693C23.3179 143.273 23.9133 146.9 18.9896 146.9C15.7822 146.9 14.2177 144.317 14.2197 141.954C14.2271 133.161 27.2802 131.171 27.2864 123.931C27.2897 119.945 24.6125 117.582 20.1341 117.582C10.5858 117.582 14.306 127.327 7.07443 127.327C4.4638 127.327 2.22417 125.776 2.22668 122.824C2.23107 115.582 10.5895 109.164 19.6923 109.164ZM19.2848 151.694C22.6365 151.694 25.3997 154.422 25.3969 157.751C25.3941 161.079 22.6315 163.808 19.2745 163.808C15.9175 163.808 13.1578 161.083 13.1606 157.751C13.1634 154.424 15.9278 151.694 19.2848 151.694Z" fill="#D1D5DB"/>
<path d="M-7.16989 149.645C-16.7181 149.645 -26.1148 145.292 -26.106 134.88C-26.0978 125.278 -14.9797 121.585 -12.5897 118.116C-10.7954 115.535 -11.3909 111.909 -6.46713 111.909C-3.25973 111.909 -1.6952 114.491 -1.6972 116.854C-1.70467 125.647 -14.7577 127.637 -14.7639 134.878C-14.7673 138.863 -12.09 141.226 -7.61163 141.226C1.93662 141.226 -1.78357 131.482 5.44803 131.482C8.05866 131.482 10.2983 133.032 10.2958 135.984C10.2914 143.227 1.93299 149.645 -7.16989 149.645ZM-6.76232 107.115C-10.1141 107.115 -12.8773 104.386 -12.8745 101.058C-12.8716 97.7294 -10.109 95.0006 -6.75202 95.0006C-3.395 95.0006 -0.635295 97.726 -0.638126 101.058C-0.640952 104.384 -3.40529 107.115 -6.76232 107.115Z" fill="#E5E7EB"/>
<path d="M-6.61332 52.498C2.93493 52.498 12.3316 56.851 12.3228 67.263C12.3146 76.8646 1.19649 80.5572 -1.19352 84.0266C-2.98777 86.6074 -2.39232 90.2337 -7.31608 90.2337C-10.5235 90.2337 -12.088 87.6512 -12.086 85.2883C-12.0785 76.4952 0.974545 74.5052 0.980696 67.2647C0.984082 63.2794 -1.69319 60.9165 -6.17157 60.9165C-15.7198 60.9165 -11.9996 70.661 -19.2312 70.661C-21.8419 70.661 -24.0815 69.1101 -24.079 66.1582C-24.0746 58.916 -15.7162 52.498 -6.61332 52.498ZM-7.02089 95.0276C-3.66914 95.0276 -0.905922 97.7565 -0.908749 101.085C-0.911577 104.413 -3.67415 107.142 -7.03118 107.142C-10.3882 107.142 -13.1479 104.417 -13.1451 101.085C-13.1423 97.7582 -10.3779 95.0276 -7.02089 95.0276Z" fill="#D1D5DB"/>
<path d="M181.606 109.164C191.155 109.164 200.551 113.517 200.542 123.929C200.534 133.531 189.416 137.223 187.026 140.693C185.232 143.273 185.827 146.9 180.904 146.9C177.696 146.9 176.132 144.317 176.134 141.954C176.141 133.161 189.194 131.171 189.2 123.931C189.204 119.945 186.527 117.582 182.048 117.582C172.5 117.582 176.22 127.327 168.988 127.327C166.378 127.327 164.138 125.776 164.141 122.824C164.145 115.582 172.504 109.164 181.606 109.164ZM181.199 151.694C184.551 151.694 187.314 154.422 187.311 157.751C187.308 161.079 184.546 163.808 181.189 163.808C177.832 163.808 175.072 161.083 175.075 157.751C175.077 154.424 177.842 151.694 181.199 151.694Z" fill="#D1D5DB"/>
<path d="M154.744 149.645C145.196 149.645 135.799 145.292 135.808 134.88C135.816 125.278 146.934 121.585 149.324 118.116C151.119 115.535 150.523 111.909 155.447 111.909C158.654 111.909 160.219 114.491 160.217 116.854C160.209 125.647 147.156 127.637 147.15 134.878C147.147 138.863 149.824 141.226 154.302 141.226C163.851 141.226 160.13 131.482 167.362 131.482C169.973 131.482 172.212 133.032 172.21 135.984C172.205 143.227 163.847 149.645 154.744 149.645ZM155.152 107.115C151.8 107.115 149.037 104.386 149.04 101.058C149.042 97.7294 151.805 95.0006 155.162 95.0006C158.519 95.0006 161.279 97.726 161.276 101.058C161.273 104.384 158.509 107.115 155.152 107.115Z" fill="#E5E7EB"/>
<path d="M100.649 109.164C110.198 109.164 119.594 113.517 119.585 123.929C119.577 133.531 108.459 137.223 106.069 140.693C104.275 143.273 104.87 146.9 99.9466 146.9C96.7392 146.9 95.1747 144.317 95.1767 141.954C95.1842 133.161 108.237 131.171 108.243 123.931C108.247 119.945 105.57 117.582 101.091 117.582C91.5429 117.582 95.2631 127.327 88.0315 127.327C85.4208 127.327 83.1812 125.776 83.1837 122.824C83.1881 115.582 91.5465 109.164 100.649 109.164ZM100.242 151.694C103.594 151.694 106.357 154.422 106.354 157.751C106.351 161.079 103.589 163.808 100.232 163.808C96.8745 163.808 94.1148 161.083 94.1176 157.751C94.1204 154.424 96.8848 151.694 100.242 151.694Z" fill="#D1D5DB"/>
<path d="M73.7871 149.645C64.2389 149.645 54.8422 145.292 54.8511 134.88C54.8592 125.278 65.9773 121.585 68.3673 118.116C70.1616 115.535 69.5662 111.909 74.4899 111.909C77.6973 111.909 79.2618 114.491 79.2598 116.854C79.2524 125.647 66.1993 127.637 66.1931 134.878C66.1897 138.863 68.867 141.226 73.3454 141.226C82.8936 141.226 79.1735 131.482 86.4051 131.482C89.0157 131.482 91.2553 133.032 91.2528 135.984C91.2484 143.227 82.89 149.645 73.7871 149.645ZM74.1947 107.115C70.843 107.115 68.0797 104.386 68.0826 101.058C68.0854 97.7294 70.848 95.0006 74.205 95.0006C77.562 95.0006 80.3217 97.726 80.3189 101.058C80.3161 104.384 77.5517 107.115 74.1947 107.115Z" fill="#E5E7EB"/>
<path d="M155.295 52.498C164.843 52.498 174.24 56.851 174.231 67.263C174.223 76.8646 163.105 80.5572 160.715 84.0266C158.92 86.6074 159.516 90.2337 154.592 90.2337C151.385 90.2337 149.82 87.6512 149.822 85.2883C149.83 76.4952 162.883 74.5052 162.889 67.2647C162.892 63.2794 160.215 60.9165 155.737 60.9165C146.188 60.9165 149.909 70.661 142.677 70.661C140.066 70.661 137.827 69.1101 137.829 66.1582C137.834 58.916 146.192 52.498 155.295 52.498ZM154.887 95.0276C158.239 95.0276 161.002 97.7565 160.999 101.085C160.997 104.413 158.234 107.142 154.877 107.142C151.52 107.142 148.76 104.417 148.763 101.085C148.766 97.7582 151.53 95.0276 154.887 95.0276Z" fill="#D1D5DB"/>
<path d="M128.433 92.9785C118.884 92.9785 109.488 88.6255 109.497 78.2136C109.505 68.6119 120.623 64.9194 123.013 61.4499C124.807 58.8692 124.212 55.2428 129.135 55.2428C132.343 55.2428 133.907 57.8253 133.905 60.1883C133.898 68.9814 120.845 70.9714 120.839 78.2118C120.835 82.1971 123.513 84.5601 127.991 84.5601C137.539 84.5601 133.819 74.8156 141.051 74.8156C143.661 74.8156 145.901 76.3665 145.898 79.3184C145.894 86.5606 137.536 92.9785 128.433 92.9785ZM128.84 50.449C125.488 50.449 122.725 47.7201 122.728 44.3918C122.731 41.0634 125.493 38.3345 128.851 38.3345C132.208 38.3345 134.967 41.0599 134.964 44.3918C134.962 47.7184 132.197 50.449 128.84 50.449Z" fill="#E5E7EB"/>
<path d="M74.3388 52.498C83.8871 52.498 93.2838 56.851 93.2749 67.263C93.2667 76.8646 82.1486 80.5572 79.7586 84.0266C77.9644 86.6074 78.5598 90.2337 73.6361 90.2337C70.4287 90.2337 68.8641 87.6512 68.8661 85.2883C68.8736 76.4952 81.9267 74.5052 81.9328 67.2647C81.9362 63.2794 79.259 60.9165 74.7806 60.9165C65.2323 60.9165 68.9525 70.661 61.7209 70.661C59.1103 70.661 56.8707 69.1101 56.8732 66.1582C56.8776 58.916 65.236 52.498 74.3388 52.498ZM73.9313 95.0276C77.283 95.0276 80.0462 97.7565 80.0434 101.085C80.0406 104.413 77.278 107.142 73.921 107.142C70.5639 107.142 67.8042 104.417 67.8071 101.085C67.8099 97.7582 70.5742 95.0276 73.9313 95.0276Z" fill="#D1D5DB"/>
<path d="M47.4766 92.9785C37.9284 92.9785 28.5317 88.6255 28.5405 78.2136C28.5487 68.6119 39.6668 64.9194 42.0568 61.4499C43.851 58.8692 43.2556 55.2428 48.1794 55.2428C51.3868 55.2428 52.9513 57.8253 52.9493 60.1883C52.9418 68.9814 39.8887 70.9714 39.8826 78.2118C39.8792 82.1971 42.5565 84.5601 47.0349 84.5601C56.5831 84.5601 52.8629 74.8156 60.0945 74.8156C62.7051 74.8156 64.9448 76.3665 64.9423 79.3184C64.9379 86.5606 56.5795 92.9785 47.4766 92.9785ZM47.8842 50.449C44.5324 50.449 41.7692 47.7201 41.772 44.3918C41.7749 41.0634 44.5374 38.3345 47.8945 38.3345C51.2515 38.3345 54.0112 41.0599 54.0084 44.3918C54.0055 47.7184 51.2412 50.449 47.8842 50.449Z" fill="#E5E7EB"/>
<path d="M102.12 36.3105C92.5719 36.3105 83.1752 31.9576 83.1841 21.5456C83.1922 11.944 94.3103 8.25144 96.7004 4.78195C98.4946 2.20119 97.8992 -1.42513 102.823 -1.42513C106.03 -1.42513 107.595 1.15738 107.593 3.52032C107.585 12.3134 94.5323 14.3034 94.5261 21.5439C94.5228 25.5292 97.2 27.8921 101.678 27.8921C111.227 27.8921 107.506 18.1476 114.738 18.1476C117.349 18.1476 119.588 19.6985 119.586 22.6504C119.581 29.8926 111.223 36.3105 102.12 36.3105ZM102.528 -6.21898C99.176 -6.21898 96.4128 -8.94787 96.4156 -12.2762C96.4184 -15.6045 99.181 -18.3334 102.538 -18.3334C105.895 -18.3334 108.655 -15.608 108.652 -12.2762C108.649 -8.94962 105.885 -6.21898 102.528 -6.21898Z" fill="#E5E7EB"/>
<path d="M128.982 -4.16992C138.531 -4.16992 147.927 0.183055 147.918 10.595C147.91 20.1966 136.792 23.8892 134.402 27.3587C132.608 29.9394 133.203 33.5658 128.28 33.5658C125.072 33.5658 123.508 30.9832 123.51 28.6203C123.517 19.8272 136.57 17.8372 136.576 10.5967C136.58 6.61145 133.903 4.24851 129.424 4.24851C119.876 4.24851 123.596 13.993 116.364 13.993C113.754 13.993 111.514 12.4421 111.517 9.4902C111.521 2.24802 119.88 -4.16992 128.982 -4.16992ZM128.575 38.3596C131.927 38.3596 134.69 41.0885 134.687 44.4168C134.684 47.7452 131.922 50.4741 128.565 50.4741C125.207 50.4741 122.448 47.7487 122.451 44.4168C122.453 41.0902 125.218 38.3596 128.575 38.3596Z" fill="#D1D5DB"/>
<path d="M21.168 36.3105C11.6198 36.3105 2.22308 31.9576 2.23193 21.5456C2.24009 11.944 13.3582 8.25144 15.7482 4.78195C17.5425 2.20119 16.947 -1.42513 21.8708 -1.42513C25.0782 -1.42513 26.6427 1.15738 26.6407 3.52032C26.6332 12.3134 13.5801 14.3034 13.574 21.5439C13.5706 25.5292 16.2479 27.8921 20.7263 27.8921C30.2745 27.8921 26.5543 18.1476 33.7859 18.1476C36.3966 18.1476 38.6362 19.6985 38.6337 22.6504C38.6293 29.8926 30.2709 36.3105 21.168 36.3105ZM21.5756 -6.21898C18.2238 -6.21898 15.4606 -8.94787 15.4634 -12.2762C15.4663 -15.6045 18.2288 -18.3334 21.5859 -18.3334C24.9429 -18.3334 27.7026 -15.608 27.6998 -12.2762C27.6969 -8.94962 24.9326 -6.21898 21.5756 -6.21898Z" fill="#E5E7EB"/>
<path d="M48.0302 -4.16992C57.5785 -4.16992 66.9752 0.183055 66.9663 10.595C66.9582 20.1966 55.84 23.8892 53.45 27.3587C51.6558 29.9394 52.2512 33.5658 47.3275 33.5658C44.1201 33.5658 42.5555 30.9832 42.5576 28.6203C42.565 19.8272 55.6181 17.8372 55.6243 10.5967C55.6276 6.61145 52.9504 4.24851 48.472 4.24851C38.9237 4.24851 42.6439 13.993 35.4123 13.993C32.8017 13.993 30.5621 12.4421 30.5646 9.4902C30.569 2.24802 38.9274 -4.16992 48.0302 -4.16992ZM47.6227 38.3596C50.9744 38.3596 53.7376 41.0885 53.7348 44.4168C53.732 47.7452 50.9694 50.4741 47.6124 50.4741C44.2553 50.4741 41.4956 47.7487 41.4985 44.4168C41.5013 41.0902 44.2656 38.3596 47.6227 38.3596Z" fill="#D1D5DB"/>
<path d="M343.508 109.164C353.056 109.164 362.453 113.517 362.444 123.929C362.436 133.531 351.318 137.223 348.928 140.693C347.133 143.273 347.729 146.9 342.805 146.9C339.598 146.9 338.033 144.317 338.035 141.954C338.043 133.161 351.096 131.171 351.102 123.931C351.105 119.945 348.428 117.582 343.95 117.582C334.401 117.582 338.121 127.327 330.89 127.327C328.279 127.327 326.04 125.776 326.042 122.824C326.046 115.582 334.405 109.164 343.508 109.164ZM343.1 151.694C346.452 151.694 349.215 154.422 349.212 157.751C349.21 161.079 346.447 163.808 343.09 163.808C339.733 163.808 336.973 161.083 336.976 157.751C336.979 154.424 339.743 151.694 343.1 151.694Z" fill="#D1D5DB"/>
<path d="M316.646 149.645C307.097 149.645 297.701 145.292 297.709 134.88C297.718 125.278 308.836 121.585 311.226 118.116C313.02 115.535 312.425 111.909 317.348 111.909C320.556 111.909 322.12 114.491 322.118 116.854C322.111 125.647 309.058 127.637 309.052 134.878C309.048 138.863 311.725 141.226 316.204 141.226C325.752 141.226 322.032 131.482 329.263 131.482C331.874 131.482 334.114 133.032 334.111 135.984C334.107 143.227 325.748 149.645 316.646 149.645ZM317.053 107.115C313.701 107.115 310.938 104.386 310.941 101.058C310.944 97.7294 313.706 95.0006 317.063 95.0006C320.42 95.0006 323.18 97.726 323.177 101.058C323.174 104.384 320.41 107.115 317.053 107.115Z" fill="#E5E7EB"/>
<path d="M262.558 109.164C272.106 109.164 281.503 113.517 281.494 123.929C281.485 133.531 270.367 137.223 267.977 140.693C266.183 143.273 266.779 146.9 261.855 146.9C258.647 146.9 257.083 144.317 257.085 141.954C257.092 133.161 270.145 131.171 270.152 123.931C270.155 119.945 267.478 117.582 262.999 117.582C253.451 117.582 257.171 127.327 249.94 127.327C247.329 127.327 245.089 125.776 245.092 122.824C245.096 115.582 253.455 109.164 262.558 109.164ZM262.15 151.694C265.502 151.694 268.265 154.422 268.262 157.751C268.259 161.079 265.497 163.808 262.14 163.808C258.783 163.808 256.023 161.083 256.026 157.751C256.029 154.424 258.793 151.694 262.15 151.694Z" fill="#D1D5DB"/>
<path d="M235.695 149.645C226.147 149.645 216.75 145.292 216.759 134.88C216.767 125.278 227.886 121.585 230.276 118.116C232.07 115.535 231.474 111.909 236.398 111.909C239.606 111.909 241.17 114.491 241.168 116.854C241.161 125.647 228.107 127.637 228.101 134.878C228.098 138.863 230.775 141.226 235.254 141.226C244.802 141.226 241.082 131.482 248.313 131.482C250.924 131.482 253.164 133.032 253.161 135.984C253.157 143.227 244.798 149.645 235.695 149.645ZM236.103 107.115C232.751 107.115 229.988 104.386 229.991 101.058C229.994 97.7294 232.756 95.0006 236.113 95.0006C239.47 95.0006 242.23 97.726 242.227 101.058C242.224 104.384 239.46 107.115 236.103 107.115Z" fill="#E5E7EB"/>
<path d="M317.201 52.498C326.749 52.498 336.146 56.851 336.137 67.263C336.129 76.8646 325.011 80.5572 322.621 84.0266C320.827 86.6074 321.422 90.2337 316.498 90.2337C313.291 90.2337 311.726 87.6512 311.728 85.2883C311.736 76.4952 324.789 74.5052 324.795 67.2647C324.799 63.2794 322.121 60.9165 317.643 60.9165C308.095 60.9165 311.815 70.661 304.583 70.661C301.973 70.661 299.733 69.1101 299.735 66.1582C299.74 58.916 308.098 52.498 317.201 52.498ZM316.794 95.0276C320.145 95.0276 322.909 97.7565 322.906 101.085C322.903 104.413 320.14 107.142 316.783 107.142C313.426 107.142 310.667 104.417 310.669 101.085C310.672 97.7582 313.437 95.0276 316.794 95.0276Z" fill="#D1D5DB"/>
<path d="M290.339 92.9785C280.791 92.9785 271.394 88.6255 271.403 78.2136C271.411 68.6119 282.529 64.9194 284.919 61.4499C286.713 58.8692 286.118 55.2428 291.042 55.2428C294.249 55.2428 295.814 57.8253 295.812 60.1883C295.804 68.9814 282.751 70.9714 282.745 78.2118C282.742 82.1971 285.419 84.5601 289.897 84.5601C299.445 84.5601 295.725 74.8156 302.957 74.8156C305.567 74.8156 307.807 76.3665 307.805 79.3184C307.8 86.5606 299.442 92.9785 290.339 92.9785ZM290.746 50.449C287.395 50.449 284.632 47.7201 284.634 44.3918C284.637 41.0634 287.4 38.3345 290.757 38.3345C294.114 38.3345 296.873 41.0599 296.871 44.3918C296.868 47.7184 294.103 50.449 290.746 50.449Z" fill="#E5E7EB"/>
<path d="M236.245 52.498C245.793 52.498 255.19 56.851 255.181 67.263C255.173 76.8646 244.055 80.5572 241.665 84.0266C239.871 86.6074 240.466 90.2337 235.542 90.2337C232.335 90.2337 230.77 87.6512 230.772 85.2883C230.78 76.4952 243.833 74.5052 243.839 67.2647C243.842 63.2794 241.165 60.9165 236.687 60.9165C227.139 60.9165 230.859 70.661 223.627 70.661C221.017 70.661 218.777 69.1101 218.779 66.1582C218.784 58.916 227.142 52.498 236.245 52.498ZM235.838 95.0276C239.189 95.0276 241.952 97.7565 241.95 101.085C241.947 104.413 239.184 107.142 235.827 107.142C232.47 107.142 229.71 104.417 229.713 101.085C229.716 97.7582 232.48 95.0276 235.838 95.0276Z" fill="#D1D5DB"/>
<path d="M209.383 92.9785C199.835 92.9785 190.438 88.6255 190.447 78.2136C190.455 68.6119 201.573 64.9194 203.963 61.4499C205.757 58.8692 205.162 55.2428 210.086 55.2428C213.293 55.2428 214.858 57.8253 214.856 60.1883C214.848 68.9814 201.795 70.9714 201.789 78.2118C201.785 82.1971 204.463 84.5601 208.941 84.5601C218.489 84.5601 214.769 74.8156 222.001 74.8156C224.611 74.8156 226.851 76.3665 226.849 79.3184C226.844 86.5606 218.486 92.9785 209.383 92.9785ZM209.79 50.449C206.439 50.449 203.675 47.7201 203.678 44.3918C203.681 41.0634 206.444 38.3345 209.801 38.3345C213.158 38.3345 215.917 41.0599 215.915 44.3918C215.912 47.7184 213.147 50.449 209.79 50.449Z" fill="#E5E7EB"/>
<path d="M264.028 36.3105C254.48 36.3105 245.083 31.9576 245.092 21.5456C245.1 11.944 256.219 8.25144 258.609 4.78195C260.403 2.20119 259.807 -1.42513 264.731 -1.42513C267.939 -1.42513 269.503 1.15738 269.501 3.52032C269.494 12.3134 256.44 14.3034 256.434 21.5439C256.431 25.5292 259.108 27.8921 263.587 27.8921C273.135 27.8921 269.415 18.1476 276.646 18.1476C279.257 18.1476 281.497 19.6985 281.494 22.6504C281.49 29.8926 273.131 36.3105 264.028 36.3105ZM264.436 -6.21898C261.084 -6.21898 258.321 -8.94787 258.324 -12.2762C258.327 -15.6045 261.089 -18.3334 264.446 -18.3334C267.803 -18.3334 270.563 -15.608 270.56 -12.2762C270.557 -8.94962 267.793 -6.21898 264.436 -6.21898Z" fill="#E5E7EB"/>
<path d="M290.891 -4.16992C300.439 -4.16992 309.836 0.183055 309.827 10.595C309.819 20.1966 298.7 23.8892 296.31 27.3587C294.516 29.9394 295.112 33.5658 290.188 33.5658C286.98 33.5658 285.416 30.9832 285.418 28.6203C285.425 19.8272 298.478 17.8372 298.485 10.5967C298.488 6.61145 295.811 4.24851 291.332 4.24851C281.784 4.24851 285.504 13.993 278.273 13.993C275.662 13.993 273.422 12.4421 273.425 9.4902C273.429 2.24802 281.788 -4.16992 290.891 -4.16992ZM290.483 38.3596C293.835 38.3596 296.598 41.0885 296.595 44.4168C296.592 47.7452 293.83 50.4741 290.473 50.4741C287.116 50.4741 284.356 47.7487 284.359 44.4168C284.362 41.0902 287.126 38.3596 290.483 38.3596Z" fill="#D1D5DB"/>
<path d="M183.071 36.3105C173.523 36.3105 164.126 31.9576 164.135 21.5456C164.143 11.944 175.262 8.25144 177.652 4.78195C179.446 2.20119 178.85 -1.42513 183.774 -1.42513C186.981 -1.42513 188.546 1.15738 188.544 3.52032C188.537 12.3134 175.483 14.3034 175.477 21.5439C175.474 25.5292 178.151 27.8921 182.63 27.8921C192.178 27.8921 188.458 18.1476 195.689 18.1476C198.3 18.1476 200.54 19.6985 200.537 22.6504C200.533 29.8926 192.174 36.3105 183.071 36.3105ZM183.479 -6.21898C180.127 -6.21898 177.364 -8.94787 177.367 -12.2762C177.37 -15.6045 180.132 -18.3334 183.489 -18.3334C186.846 -18.3334 189.606 -15.608 189.603 -12.2762C189.6 -8.94962 186.836 -6.21898 183.479 -6.21898Z" fill="#E5E7EB"/>
<path d="M209.934 -4.16992C219.482 -4.16992 228.878 0.183055 228.87 10.595C228.861 20.1966 217.743 23.8892 215.353 27.3587C213.559 29.9394 214.155 33.5658 209.231 33.5658C206.023 33.5658 204.459 30.9832 204.461 28.6203C204.468 19.8272 217.521 17.8372 217.528 10.5967C217.531 6.61145 214.854 4.24851 210.375 4.24851C200.827 4.24851 204.547 13.993 197.316 13.993C194.705 13.993 192.465 12.4421 192.468 9.4902C192.472 2.24802 200.831 -4.16992 209.934 -4.16992ZM209.526 38.3596C212.878 38.3596 215.641 41.0885 215.638 44.4168C215.635 47.7452 212.873 50.4741 209.516 50.4741C206.159 50.4741 203.399 47.7487 203.402 44.4168C203.405 41.0902 206.169 38.3596 209.526 38.3596Z" fill="#D1D5DB"/>
<path d="M583.494 376.312C573.946 376.312 564.549 371.96 564.558 361.548C564.566 351.946 575.684 348.253 578.074 344.784C579.869 342.203 579.273 338.577 584.197 338.577C587.404 338.577 588.969 341.159 588.967 343.522C588.959 352.315 575.906 354.305 575.9 361.546C575.897 365.531 578.574 367.894 583.052 367.894C592.601 367.894 588.88 358.15 596.112 358.15C598.723 358.15 600.962 359.7 600.96 362.652C600.955 369.895 592.597 376.312 583.494 376.312ZM583.902 333.783C580.55 333.783 577.787 331.054 577.79 327.726C577.792 324.397 580.555 321.669 583.912 321.669C587.269 321.669 590.029 324.394 590.026 327.726C590.023 331.052 587.259 333.783 583.902 333.783Z" fill="#E5E7EB"/>
<path d="M502.538 376.318C492.99 376.318 483.593 371.965 483.602 361.553C483.61 351.952 494.728 348.259 497.118 344.79C498.913 342.209 498.317 338.583 503.241 338.583C506.448 338.583 508.013 341.165 508.011 343.528C508.003 352.321 494.95 354.311 494.944 361.552C494.941 365.537 497.618 367.9 502.096 367.9C511.645 367.9 507.924 358.155 515.156 358.155C517.767 358.155 520.006 359.706 520.004 362.658C519.999 369.9 511.641 376.318 502.538 376.318ZM502.946 333.789C499.594 333.789 496.831 331.06 496.834 327.732C496.836 324.403 499.599 321.674 502.956 321.674C506.313 321.674 509.073 324.4 509.07 327.732C509.067 331.058 506.303 333.789 502.946 333.789Z" fill="#E5E7EB"/>
<path d="M531.426 165.834C540.974 165.834 550.371 170.187 550.362 180.599C550.354 190.201 539.236 193.893 536.846 197.363C535.051 199.943 535.647 203.57 530.723 203.57C527.516 203.57 525.951 200.987 525.953 198.624C525.961 189.831 539.014 187.841 539.02 180.601C539.023 176.615 536.346 174.252 531.867 174.252C522.319 174.252 526.039 183.997 518.808 183.997C516.197 183.997 513.958 182.446 513.96 179.494C513.964 172.252 522.323 165.834 531.426 165.834ZM531.018 208.364C534.37 208.364 537.133 211.092 537.13 214.421C537.127 217.749 534.365 220.478 531.008 220.478C527.651 220.478 524.891 217.753 524.894 214.421C524.897 211.094 527.661 208.364 531.018 208.364Z" fill="#D1D5DB"/>
<path d="M504.564 206.314C495.015 206.314 485.619 201.961 485.627 191.55C485.636 181.948 496.754 178.255 499.144 174.786C500.938 172.205 500.343 168.579 505.266 168.579C508.474 168.579 510.038 171.161 510.036 173.524C510.029 182.317 496.976 184.307 496.969 191.548C496.966 195.533 499.643 197.896 504.122 197.896C513.67 197.896 509.95 188.151 517.181 188.151C519.792 188.151 522.032 189.702 522.029 192.654C522.025 199.897 513.666 206.314 504.564 206.314ZM504.971 163.785C501.619 163.785 498.856 161.056 498.859 157.728C498.862 154.399 501.624 151.67 504.981 151.67C508.338 151.67 511.098 154.396 511.095 157.728C511.092 161.054 508.328 163.785 504.971 163.785Z" fill="#E5E7EB"/>
<path d="M450.472 165.834C460.02 165.834 469.417 170.187 469.408 180.599C469.4 190.201 458.281 193.893 455.891 197.363C454.097 199.943 454.693 203.57 449.769 203.57C446.561 203.57 444.997 200.987 444.999 198.624C445.006 189.831 458.06 187.841 458.066 180.601C458.069 176.615 455.392 174.252 450.913 174.252C441.365 174.252 445.085 183.997 437.854 183.997C435.243 183.997 433.003 182.446 433.006 179.494C433.01 172.252 441.369 165.834 450.472 165.834ZM450.064 208.364C453.416 208.364 456.179 211.092 456.176 214.421C456.173 217.749 453.411 220.478 450.054 220.478C446.697 220.478 443.937 217.753 443.94 214.421C443.943 211.094 446.707 208.364 450.064 208.364Z" fill="#D1D5DB"/>
<path d="M423.609 206.314C414.061 206.314 404.664 201.961 404.673 191.55C404.681 181.948 415.8 178.255 418.19 174.786C419.984 172.205 419.388 168.579 424.312 168.579C427.52 168.579 429.084 171.161 429.082 173.524C429.075 182.317 416.022 184.307 416.015 191.548C416.012 195.533 418.689 197.896 423.168 197.896C432.716 197.896 428.996 188.151 436.227 188.151C438.838 188.151 441.078 189.702 441.075 192.654C441.071 199.897 432.712 206.314 423.609 206.314ZM424.017 163.785C420.665 163.785 417.902 161.056 417.905 157.728C417.908 154.399 420.67 151.67 424.027 151.67C427.384 151.67 430.144 154.396 430.141 157.728C430.138 161.054 427.374 163.785 424.017 163.785Z" fill="#E5E7EB"/>
<path d="M584.048 279.17C593.596 279.17 602.993 283.523 602.984 293.935C602.976 303.536 591.858 307.229 589.468 310.699C587.673 313.279 588.269 316.906 583.345 316.906C580.138 316.906 578.573 314.323 578.575 311.96C578.583 303.167 591.636 301.177 591.642 293.937C591.645 289.951 588.968 287.588 584.49 287.588C574.941 287.588 578.661 297.333 571.43 297.333C568.819 297.333 566.58 295.782 566.582 292.83C566.587 285.588 574.945 279.17 584.048 279.17ZM583.64 321.699C586.992 321.699 589.755 324.428 589.752 327.757C589.75 331.085 586.987 333.814 583.63 333.814C580.273 333.814 577.513 331.089 577.516 327.757C577.519 324.43 580.283 321.699 583.64 321.699Z" fill="#D1D5DB"/>
<path d="M557.186 319.65C547.637 319.65 538.241 315.297 538.25 304.885C538.258 295.284 549.376 291.591 551.766 288.122C553.56 285.541 552.965 281.915 557.888 281.915C561.096 281.915 562.66 284.497 562.658 286.86C562.651 295.653 549.598 297.643 549.592 304.884C549.588 308.869 552.265 311.232 556.744 311.232C566.292 311.232 562.572 301.487 569.804 301.487C572.414 301.487 574.654 303.038 574.651 305.99C574.647 313.232 566.288 319.65 557.186 319.65ZM557.593 277.121C554.241 277.121 551.478 274.392 551.481 271.064C551.484 267.735 554.246 265.006 557.603 265.006C560.96 265.006 563.72 267.732 563.717 271.064C563.715 274.39 560.95 277.121 557.593 277.121Z" fill="#E5E7EB"/>
<path d="M503.09 279.17C512.638 279.17 522.035 283.523 522.026 293.935C522.018 303.536 510.9 307.229 508.51 310.699C506.715 313.279 507.311 316.906 502.387 316.906C499.18 316.906 497.615 314.323 497.617 311.96C497.625 303.167 510.678 301.177 510.684 293.937C510.687 289.951 508.01 287.588 503.532 287.588C493.983 287.588 497.703 297.333 490.472 297.333C487.861 297.333 485.622 295.782 485.624 292.83C485.629 285.588 493.987 279.17 503.09 279.17ZM502.682 321.699C506.034 321.699 508.797 324.428 508.794 327.757C508.792 331.085 506.029 333.814 502.672 333.814C499.315 333.814 496.555 331.089 496.558 327.757C496.561 324.43 499.325 321.699 502.682 321.699Z" fill="#D1D5DB"/>
<path d="M476.228 319.65C466.679 319.65 457.283 315.297 457.291 304.885C457.3 295.284 468.418 291.591 470.808 288.122C472.602 285.541 472.007 281.915 476.93 281.915C480.138 281.915 481.702 284.497 481.7 286.86C481.693 295.653 468.64 297.643 468.634 304.884C468.63 308.869 471.307 311.232 475.786 311.232C485.334 311.232 481.614 301.487 488.845 301.487C491.456 301.487 493.696 303.038 493.693 305.99C493.689 313.232 485.33 319.65 476.228 319.65ZM476.635 277.121C473.283 277.121 470.52 274.392 470.523 271.064C470.526 267.735 473.288 265.006 476.645 265.006C480.002 265.006 482.762 267.732 482.759 271.064C482.757 274.39 479.992 277.121 476.635 277.121Z" fill="#E5E7EB"/>
<path d="M530.873 262.979C521.325 262.979 511.928 258.626 511.937 248.214C511.945 238.612 523.063 234.919 525.453 231.45C527.248 228.869 526.652 225.243 531.576 225.243C534.783 225.243 536.348 227.825 536.346 230.188C536.338 238.981 523.285 240.971 523.279 248.212C523.276 252.197 525.953 254.56 530.431 254.56C539.98 254.56 536.259 244.816 543.491 244.816C546.102 244.816 548.341 246.366 548.339 249.318C548.334 256.561 539.976 262.979 530.873 262.979ZM531.281 220.449C527.929 220.449 525.166 217.72 525.169 214.392C525.171 211.063 527.934 208.335 531.291 208.335C534.648 208.335 537.408 211.06 537.405 214.392C537.402 217.718 534.638 220.449 531.281 220.449Z" fill="#E5E7EB"/>
<path d="M557.735 222.498C567.284 222.498 576.68 226.851 576.671 237.263C576.663 246.865 565.545 250.557 563.155 254.027C561.361 256.607 561.956 260.234 557.033 260.234C553.825 260.234 552.261 257.651 552.263 255.288C552.27 246.495 565.323 244.505 565.329 237.265C565.333 233.279 562.655 230.916 558.177 230.916C548.629 230.916 552.349 240.661 545.117 240.661C542.507 240.661 540.267 239.11 540.27 236.158C540.274 228.916 548.632 222.498 557.735 222.498ZM557.328 265.028C560.679 265.028 563.443 267.756 563.44 271.085C563.437 274.413 560.674 277.142 557.317 277.142C553.96 277.142 551.201 274.417 551.204 271.085C551.206 267.758 553.971 265.028 557.328 265.028Z" fill="#D1D5DB"/>
<path d="M449.917 262.979C440.369 262.979 430.972 258.626 430.981 248.214C430.989 238.612 442.107 234.919 444.497 231.45C446.291 228.869 445.696 225.243 450.62 225.243C453.827 225.243 455.392 227.825 455.39 230.188C455.382 238.981 442.329 240.971 442.323 248.212C442.32 252.197 444.997 254.56 449.475 254.56C459.024 254.56 455.303 244.816 462.535 244.816C465.146 244.816 467.385 246.366 467.383 249.318C467.378 256.561 459.02 262.979 449.917 262.979ZM450.325 220.449C446.973 220.449 444.21 217.72 444.212 214.392C444.215 211.063 446.978 208.335 450.335 208.335C453.692 208.335 456.452 211.06 456.449 214.392C456.446 217.718 453.682 220.449 450.325 220.449Z" fill="#E5E7EB"/>
<path d="M476.779 222.498C486.328 222.498 495.724 226.851 495.715 237.263C495.707 246.865 484.589 250.557 482.199 254.027C480.405 256.607 481 260.234 476.077 260.234C472.869 260.234 471.305 257.651 471.307 255.288C471.314 246.495 484.367 244.505 484.373 237.265C484.377 233.279 481.699 230.916 477.221 230.916C467.673 230.916 471.393 240.661 464.161 240.661C461.551 240.661 459.311 239.11 459.314 236.158C459.318 228.916 467.676 222.498 476.779 222.498ZM476.372 265.028C479.723 265.028 482.487 267.756 482.484 271.085C482.481 274.413 479.718 277.142 476.361 277.142C473.004 277.142 470.245 274.417 470.248 271.085C470.25 267.758 473.015 265.028 476.372 265.028Z" fill="#D1D5DB"/>
<path d="M664.448 376.312C654.9 376.312 645.503 371.96 645.512 361.548C645.52 351.946 656.638 348.253 659.028 344.784C660.823 342.203 660.227 338.577 665.151 338.577C668.358 338.577 669.923 341.159 669.921 343.522C669.913 352.315 656.86 354.305 656.854 361.546C656.851 365.531 659.528 367.894 664.007 367.894C673.555 367.894 669.835 358.15 677.066 358.15C679.677 358.15 681.916 359.7 681.914 362.652C681.91 369.895 673.551 376.312 664.448 376.312ZM664.856 333.783C661.504 333.783 658.741 331.054 658.744 327.726C658.747 324.397 661.509 321.669 664.866 321.669C668.223 321.669 670.983 324.394 670.98 327.726C670.977 331.052 668.213 333.783 664.856 333.783Z" fill="#E5E7EB"/>
<path d="M666.468 206.314C656.92 206.314 647.523 201.961 647.532 191.55C647.54 181.948 658.658 178.255 661.048 174.786C662.842 172.205 662.247 168.579 667.171 168.579C670.378 168.579 671.942 171.161 671.94 173.524C671.933 182.317 658.88 184.307 658.874 191.548C658.87 195.533 661.548 197.896 666.026 197.896C675.574 197.896 671.854 188.151 679.086 188.151C681.696 188.151 683.936 189.702 683.933 192.654C683.929 199.897 675.571 206.314 666.468 206.314ZM666.875 163.785C663.524 163.785 660.76 161.056 660.763 157.728C660.766 154.399 663.529 151.67 666.886 151.67C670.243 151.67 673.002 154.396 673 157.728C672.997 161.054 670.232 163.785 666.875 163.785Z" fill="#E5E7EB"/>
<path d="M612.378 165.834C621.926 165.834 631.323 170.187 631.314 180.599C631.306 190.201 620.188 193.893 617.798 197.363C616.003 199.943 616.599 203.57 611.675 203.57C608.468 203.57 606.903 200.987 606.905 198.624C606.913 189.831 619.966 187.841 619.972 180.601C619.975 176.615 617.298 174.252 612.82 174.252C603.271 174.252 606.992 183.997 599.76 183.997C597.149 183.997 594.91 182.446 594.912 179.494C594.917 172.252 603.275 165.834 612.378 165.834ZM611.97 208.364C615.322 208.364 618.085 211.092 618.082 214.421C618.08 217.749 615.317 220.478 611.96 220.478C608.603 220.478 605.843 217.753 605.846 214.421C605.849 211.094 608.613 208.364 611.97 208.364Z" fill="#D1D5DB"/>
<path d="M585.516 206.314C575.967 206.314 566.571 201.961 566.58 191.55C566.588 181.948 577.706 178.255 580.096 174.786C581.89 172.205 581.295 168.579 586.218 168.579C589.426 168.579 590.99 171.161 590.988 173.524C590.981 182.317 577.928 184.307 577.922 191.548C577.918 195.533 580.596 197.896 585.074 197.896C594.622 197.896 590.902 188.151 598.134 188.151C600.744 188.151 602.984 189.702 602.981 192.654C602.977 199.897 594.619 206.314 585.516 206.314ZM585.923 163.785C582.571 163.785 579.808 161.056 579.811 157.728C579.814 154.399 582.576 151.67 585.934 151.67C589.291 151.67 592.05 154.396 592.047 157.728C592.045 161.054 589.28 163.785 585.923 163.785Z" fill="#E5E7EB"/>
<path d="M665 279.168C674.548 279.168 683.945 283.521 683.936 293.933C683.928 303.535 672.81 307.227 670.42 310.697C668.626 313.277 669.221 316.904 664.297 316.904C661.09 316.904 659.525 314.321 659.527 311.958C659.535 303.165 672.588 301.175 672.594 293.935C672.597 289.949 669.92 287.586 665.442 287.586C655.893 287.586 659.614 297.331 652.382 297.331C649.771 297.331 647.532 295.78 647.534 292.828C647.539 285.586 655.897 279.168 665 279.168ZM664.592 321.698C667.944 321.698 670.707 324.426 670.705 327.755C670.702 331.083 667.939 333.812 664.582 333.812C661.225 333.812 658.465 331.087 658.468 327.755C658.471 324.428 661.235 321.698 664.592 321.698Z" fill="#D1D5DB"/>
<path d="M638.138 319.648C628.589 319.648 619.193 315.295 619.202 304.884C619.21 295.282 630.328 291.589 632.718 288.12C634.512 285.539 633.917 281.913 638.84 281.913C642.048 281.913 643.612 284.495 643.61 286.858C643.603 295.651 630.55 297.641 630.544 304.882C630.54 308.867 633.218 311.23 637.696 311.23C647.244 311.23 643.524 301.485 650.756 301.485C653.366 301.485 655.606 303.036 655.603 305.988C655.599 313.23 647.241 319.648 638.138 319.648ZM638.545 277.119C635.194 277.119 632.43 274.39 632.433 271.062C632.436 267.733 635.199 265.004 638.556 265.004C641.913 265.004 644.672 267.73 644.669 271.062C644.667 274.388 641.902 277.119 638.545 277.119Z" fill="#E5E7EB"/>
<path d="M611.823 262.979C602.275 262.979 592.878 258.626 592.887 248.214C592.895 238.612 604.013 234.919 606.403 231.45C608.198 228.869 607.602 225.243 612.526 225.243C615.733 225.243 617.298 227.825 617.296 230.188C617.288 238.981 604.235 240.971 604.229 248.212C604.226 252.197 606.903 254.56 611.382 254.56C620.93 254.56 617.21 244.816 624.441 244.816C627.052 244.816 629.291 246.366 629.289 249.318C629.285 256.561 620.926 262.979 611.823 262.979ZM612.231 220.449C608.879 220.449 606.116 217.72 606.119 214.392C606.122 211.063 608.884 208.335 612.241 208.335C615.598 208.335 618.358 211.06 618.355 214.392C618.352 217.718 615.588 220.449 612.231 220.449Z" fill="#E5E7EB"/>
<path d="M638.686 222.498C648.234 222.498 657.63 226.851 657.622 237.263C657.613 246.865 646.495 250.557 644.105 254.027C642.311 256.607 642.907 260.234 637.983 260.234C634.775 260.234 633.211 257.651 633.213 255.288C633.22 246.495 646.273 244.505 646.28 237.265C646.283 233.279 643.606 230.916 639.127 230.916C629.579 230.916 633.299 240.661 626.068 240.661C623.457 240.661 621.217 239.11 621.22 236.158C621.224 228.916 629.583 222.498 638.686 222.498ZM638.278 265.028C641.63 265.028 644.393 267.756 644.39 271.085C644.387 274.413 641.625 277.142 638.268 277.142C634.911 277.142 632.151 274.417 632.154 271.085C632.157 267.758 634.921 265.028 638.278 265.028Z" fill="#D1D5DB"/>
<path d="M97.7676 376.312C88.2194 376.312 78.8227 371.96 78.8315 361.548C78.8397 351.946 89.9578 348.253 92.3478 344.784C94.1421 342.203 93.5466 338.577 98.4704 338.577C101.678 338.577 103.242 341.159 103.24 343.522C103.233 352.315 90.1798 354.305 90.1736 361.546C90.1702 365.531 92.8475 367.894 97.3259 367.894C106.874 367.894 103.154 358.15 110.386 358.15C112.996 358.15 115.236 359.7 115.233 362.652C115.229 369.895 106.87 376.312 97.7676 376.312ZM98.1752 333.783C94.8234 333.783 92.0602 331.054 92.063 327.726C92.0659 324.397 94.8285 321.669 98.1855 321.669C101.543 321.669 104.302 324.394 104.299 327.726C104.297 331.052 101.532 333.783 98.1752 333.783Z" fill="#E5E7EB"/>
<path d="M16.8164 376.312C7.2682 376.312 -2.12848 371.96 -2.11963 361.548C-2.11148 351.946 9.00663 348.253 11.3966 344.784C13.1909 342.203 12.5954 338.577 17.5192 338.577C20.7266 338.577 22.2911 341.159 22.2891 343.522C22.2817 352.315 9.22858 354.305 9.22243 361.546C9.21904 365.531 11.8963 367.894 16.3747 367.894C25.9229 367.894 22.2028 358.15 29.4344 358.15C32.045 358.15 34.2846 359.7 34.2821 362.652C34.2777 369.895 25.9193 376.312 16.8164 376.312ZM17.224 333.783C13.8723 333.783 11.109 331.054 11.1119 327.726C11.1147 324.397 13.8773 321.669 17.2343 321.669C20.5913 321.669 23.351 324.394 23.3482 327.726C23.3454 331.052 20.581 333.783 17.224 333.783Z" fill="#E5E7EB"/>
<path d="M45.706 165.834C55.2543 165.834 64.6509 170.187 64.6421 180.599C64.6339 190.201 53.5158 193.893 51.1258 197.363C49.3316 199.943 49.927 203.57 45.0033 203.57C41.7959 203.57 40.2313 200.987 40.2333 198.624C40.2408 189.831 53.2939 187.841 53.3 180.601C53.3034 176.615 50.6261 174.252 46.1478 174.252C36.5995 174.252 40.3197 183.997 33.0881 183.997C30.4775 183.997 28.2378 182.446 28.2403 179.494C28.2447 172.252 36.6031 165.834 45.706 165.834ZM45.2984 208.364C48.6502 208.364 51.4134 211.092 51.4106 214.421C51.4078 217.749 48.6452 220.478 45.2882 220.478C41.9311 220.478 39.1714 217.753 39.1743 214.421C39.1771 211.094 41.9414 208.364 45.2984 208.364Z" fill="#D1D5DB"/>
<path d="M18.8438 206.314C9.29554 206.314 -0.101135 201.961 -0.0922897 191.55C-0.0841325 181.948 11.034 178.255 13.424 174.786C15.2182 172.205 14.6228 168.579 19.5465 168.579C22.7539 168.579 24.3185 171.161 24.3165 173.524C24.309 182.317 11.2559 184.307 11.2498 191.548C11.2464 195.533 13.9237 197.896 18.402 197.896C27.9503 197.896 24.2301 188.151 31.4617 188.151C34.0723 188.151 36.312 189.702 36.3095 192.654C36.3051 199.897 27.9467 206.314 18.8438 206.314ZM19.2514 163.785C15.8996 163.785 13.1364 161.056 13.1392 157.728C13.142 154.399 15.9046 151.67 19.2616 151.67C22.6187 151.67 25.3784 154.396 25.3755 157.728C25.3727 161.054 22.6084 163.785 19.2514 163.785Z" fill="#E5E7EB"/>
<path d="M98.3232 279.168C107.871 279.168 117.268 283.521 117.259 293.933C117.251 303.535 106.133 307.227 103.743 310.697C101.949 313.277 102.544 316.904 97.6204 316.904C94.4131 316.904 92.8485 314.321 92.8505 311.958C92.858 303.165 105.911 301.175 105.917 293.935C105.921 289.949 103.243 287.586 98.765 287.586C89.2167 287.586 92.9369 297.331 85.7053 297.331C83.0947 297.331 80.855 295.78 80.8575 292.828C80.8619 285.586 89.2203 279.168 98.3232 279.168ZM97.9156 321.698C101.267 321.698 104.031 324.426 104.028 327.755C104.025 331.083 101.262 333.812 97.9053 333.812C94.5483 333.812 91.7886 331.087 91.7914 327.755C91.7943 324.428 94.5586 321.698 97.9156 321.698Z" fill="#D1D5DB"/>
<path d="M71.46 319.648C61.9118 319.648 52.5151 315.295 52.5239 304.884C52.5321 295.282 63.6502 291.589 66.0402 288.12C67.8344 285.539 67.239 281.913 72.1628 281.913C75.3702 281.913 76.9347 284.495 76.9327 286.858C76.9252 295.651 63.8721 297.641 63.866 304.882C63.8626 308.867 66.5399 311.23 71.0183 311.23C80.5665 311.23 76.8463 301.485 84.0779 301.485C86.6885 301.485 88.9282 303.036 88.9257 305.988C88.9213 313.23 80.5629 319.648 71.46 319.648ZM71.8676 277.119C68.5158 277.119 65.7526 274.39 65.7554 271.062C65.7583 267.733 68.5208 265.004 71.8779 265.004C75.2349 265.004 77.9946 267.73 77.9918 271.062C77.9889 274.388 75.2246 277.119 71.8676 277.119Z" fill="#E5E7EB"/>
<path d="M17.3691 279.168C26.9174 279.168 36.314 283.521 36.3052 293.933C36.297 303.535 25.1789 307.227 22.7889 310.697C20.9947 313.277 21.5901 316.904 16.6663 316.904C13.459 316.904 11.8944 314.321 11.8964 311.958C11.9039 303.165 24.957 301.175 24.9631 293.935C24.9665 289.949 22.2892 287.586 17.8108 287.586C8.2626 287.586 11.9828 297.331 4.75119 297.331C2.14056 297.331 -0.0990738 295.78 -0.0965659 292.828C-0.0921735 285.586 8.26623 279.168 17.3691 279.168ZM16.9615 321.698C20.3133 321.698 23.0765 324.426 23.0737 327.755C23.0708 331.083 20.3083 333.812 16.9512 333.812C13.5942 333.812 10.8345 331.087 10.8373 327.755C10.8402 324.428 13.6045 321.698 16.9615 321.698Z" fill="#D1D5DB"/>
<path d="M-9.49313 319.648C-19.0414 319.648 -28.438 315.295 -28.4292 304.884C-28.421 295.282 -17.3029 291.589 -14.9129 288.12C-13.1187 285.539 -13.7141 281.913 -8.79037 281.913C-5.58297 281.913 -4.01844 284.495 -4.02045 286.858C-4.02792 295.651 -17.081 297.641 -17.0871 304.882C-17.0905 308.867 -14.4133 311.23 -9.93487 311.23C-0.386627 311.23 -4.10681 301.485 3.12479 301.485C5.73542 301.485 7.97505 303.036 7.97254 305.988C7.96815 313.23 -0.390257 319.648 -9.49313 319.648ZM-9.08556 277.119C-12.4373 277.119 -15.2005 274.39 -15.1977 271.062C-15.1949 267.733 -12.4323 265.004 -9.07527 265.004C-5.71824 265.004 -2.95854 267.73 -2.96137 271.062C-2.96419 274.388 -5.72853 277.119 -9.08556 277.119Z" fill="#E5E7EB"/>
<path d="M45.1524 262.979C35.6041 262.979 26.2075 258.626 26.2163 248.214C26.2245 238.612 37.3426 234.919 39.7326 231.45C41.5268 228.869 40.9314 225.243 45.8551 225.243C49.0625 225.243 50.6271 227.825 50.6251 230.188C50.6176 238.981 37.5645 240.971 37.5584 248.212C37.555 252.197 40.2323 254.56 44.7106 254.56C54.2589 254.56 50.5387 244.816 57.7703 244.816C60.3809 244.816 62.6206 246.366 62.6181 249.318C62.6137 256.561 54.2553 262.979 45.1524 262.979ZM45.5599 220.449C42.2082 220.449 39.445 217.72 39.4478 214.392C39.4506 211.063 42.2132 208.335 45.5702 208.335C48.9273 208.335 51.687 211.06 51.6841 214.392C51.6813 217.718 48.917 220.449 45.5599 220.449Z" fill="#E5E7EB"/>
<path d="M72.0146 222.498C81.5629 222.498 90.9595 226.851 90.9507 237.263C90.9425 246.865 79.8244 250.557 77.4344 254.027C75.6402 256.607 76.2356 260.234 71.3119 260.234C68.1045 260.234 66.5399 257.651 66.5419 255.288C66.5494 246.495 79.6025 244.505 79.6086 237.265C79.612 233.279 76.9347 230.916 72.4564 230.916C62.9081 230.916 66.6283 240.661 59.3967 240.661C56.7861 240.661 54.5464 239.11 54.5489 236.158C54.5533 228.916 62.9117 222.498 72.0146 222.498ZM71.607 265.028C74.9588 265.028 77.722 267.756 77.7192 271.085C77.7164 274.413 74.9538 277.142 71.5967 277.142C68.2397 277.142 65.48 274.417 65.4829 271.085C65.4857 267.758 68.25 265.028 71.607 265.028Z" fill="#D1D5DB"/>
<path d="M-8.94242 222.498C0.605827 222.498 10.0025 226.851 9.99366 237.263C9.9855 246.865 -1.13261 250.557 -3.52262 254.027C-5.31687 256.607 -4.72142 260.234 -9.64518 260.234C-12.8526 260.234 -14.4171 257.651 -14.4151 255.288C-14.4076 246.495 -1.35456 244.505 -1.34841 237.265C-1.34502 233.279 -4.02229 230.916 -8.50067 230.916C-18.0489 230.916 -14.3287 240.661 -21.5603 240.661C-24.171 240.661 -26.4106 239.11 -26.4081 236.158C-26.4037 228.916 -18.0453 222.498 -8.94242 222.498ZM-9.34999 265.028C-5.99825 265.028 -3.23502 267.756 -3.23785 271.085C-3.24068 274.413 -6.00326 277.142 -9.36028 277.142C-12.7173 277.142 -15.477 274.417 -15.4742 271.085C-15.4714 267.758 -12.707 265.028 -9.34999 265.028Z" fill="#D1D5DB"/>
<path d="M259.683 376.312C250.134 376.312 240.738 371.96 240.747 361.548C240.755 351.946 251.873 348.253 254.263 344.784C256.057 342.203 255.462 338.577 260.385 338.577C263.593 338.577 265.157 341.159 265.155 343.522C265.148 352.315 252.095 354.305 252.089 361.546C252.085 365.531 254.763 367.894 259.241 367.894C268.789 367.894 265.069 358.15 272.301 358.15C274.911 358.15 277.151 359.7 277.148 362.652C277.144 369.895 268.786 376.312 259.683 376.312ZM260.09 333.783C256.738 333.783 253.975 331.054 253.978 327.726C253.981 324.397 256.743 321.669 260.101 321.669C263.458 321.669 266.217 324.394 266.214 327.726C266.212 331.052 263.447 333.783 260.09 333.783Z" fill="#E5E7EB"/>
<path d="M178.725 376.312C169.176 376.312 159.78 371.96 159.789 361.548C159.797 351.946 170.915 348.253 173.305 344.784C175.099 342.203 174.504 338.577 179.427 338.577C182.635 338.577 184.199 341.159 184.197 343.522C184.19 352.315 171.137 354.305 171.131 361.546C171.127 365.531 173.805 367.894 178.283 367.894C187.831 367.894 184.111 358.15 191.343 358.15C193.953 358.15 196.193 359.7 196.19 362.652C196.186 369.895 187.828 376.312 178.725 376.312ZM179.132 333.783C175.78 333.783 173.017 331.054 173.02 327.726C173.023 324.397 175.785 321.669 179.143 321.669C182.5 321.669 185.259 324.394 185.256 327.726C185.254 331.052 182.489 333.783 179.132 333.783Z" fill="#E5E7EB"/>
<path d="M207.613 165.834C217.161 165.834 226.558 170.187 226.549 180.599C226.541 190.201 215.423 193.893 213.033 197.363C211.239 199.943 211.834 203.57 206.91 203.57C203.703 203.57 202.139 200.987 202.141 198.624C202.148 189.831 215.201 187.841 215.207 180.601C215.211 176.615 212.533 174.252 208.055 174.252C198.507 174.252 202.227 183.997 194.995 183.997C192.385 183.997 190.145 182.446 190.148 179.494C190.152 172.252 198.51 165.834 207.613 165.834ZM207.206 208.364C210.557 208.364 213.321 211.092 213.318 214.421C213.315 217.749 210.552 220.478 207.195 220.478C203.838 220.478 201.079 217.753 201.081 214.421C201.084 211.094 203.849 208.364 207.206 208.364Z" fill="#D1D5DB"/>
<path d="M180.751 206.314C171.203 206.314 161.806 201.961 161.815 191.55C161.823 181.948 172.941 178.255 175.331 174.786C177.125 172.205 176.53 168.579 181.454 168.579C184.661 168.579 186.226 171.161 186.224 173.524C186.216 182.317 173.163 184.307 173.157 191.548C173.154 195.533 175.831 197.896 180.309 197.896C189.858 197.896 186.137 188.151 193.369 188.151C195.98 188.151 198.219 189.702 198.217 192.654C198.212 199.897 189.854 206.314 180.751 206.314ZM181.159 163.785C177.807 163.785 175.044 161.056 175.046 157.728C175.049 154.399 177.812 151.67 181.169 151.67C184.526 151.67 187.286 154.396 187.283 157.728C187.28 161.054 184.516 163.785 181.159 163.785Z" fill="#E5E7EB"/>
<path d="M126.659 165.834C136.207 165.834 145.604 170.187 145.595 180.599C145.587 190.201 134.469 193.893 132.079 197.363C130.285 199.943 130.88 203.57 125.956 203.57C122.749 203.57 121.184 200.987 121.186 198.624C121.194 189.831 134.247 187.841 134.253 180.601C134.257 176.615 131.579 174.252 127.101 174.252C117.553 174.252 121.273 183.997 114.041 183.997C111.431 183.997 109.191 182.446 109.193 179.494C109.198 172.252 117.556 165.834 126.659 165.834ZM126.252 208.364C129.603 208.364 132.367 211.092 132.364 214.421C132.361 217.749 129.598 220.478 126.241 220.478C122.884 220.478 120.125 217.753 120.127 214.421C120.13 211.094 122.895 208.364 126.252 208.364Z" fill="#D1D5DB"/>
<path d="M99.7969 206.314C90.2487 206.314 80.852 201.961 80.8608 191.55C80.869 181.948 91.9871 178.255 94.3771 174.786C96.1714 172.205 95.5759 168.579 100.5 168.579C103.707 168.579 105.272 171.161 105.27 173.524C105.262 182.317 92.209 184.307 92.2029 191.548C92.1995 195.533 94.8768 197.896 99.3552 197.896C108.903 197.896 105.183 188.151 112.415 188.151C115.025 188.151 117.265 189.702 117.263 192.654C117.258 199.897 108.9 206.314 99.7969 206.314ZM100.204 163.785C96.8527 163.785 94.0895 161.056 94.0923 157.728C94.0952 154.399 96.8577 151.67 100.215 151.67C103.572 151.67 106.332 154.396 106.329 157.728C106.326 161.054 103.562 163.785 100.204 163.785Z" fill="#E5E7EB"/>
<path d="M260.233 279.168C269.782 279.168 279.178 283.521 279.169 293.933C279.161 303.535 268.043 307.227 265.653 310.697C263.859 313.277 264.454 316.904 259.531 316.904C256.323 316.904 254.759 314.321 254.761 311.958C254.768 303.165 267.821 301.175 267.827 293.935C267.831 289.949 265.153 287.586 260.675 287.586C251.127 287.586 254.847 297.331 247.615 297.331C245.005 297.331 242.765 295.78 242.768 292.828C242.772 285.586 251.13 279.168 260.233 279.168ZM259.826 321.698C263.178 321.698 265.941 324.426 265.938 327.755C265.935 331.083 263.173 333.812 259.815 333.812C256.458 333.812 253.699 331.087 253.702 327.755C253.704 324.428 256.469 321.698 259.826 321.698Z" fill="#D1D5DB"/>
<path d="M233.371 319.648C223.823 319.648 214.426 315.295 214.435 304.884C214.443 295.282 225.561 291.589 227.951 288.12C229.746 285.539 229.15 281.913 234.074 281.913C237.281 281.913 238.846 284.495 238.844 286.858C238.836 295.651 225.783 297.641 225.777 304.882C225.774 308.867 228.451 311.23 232.929 311.23C242.478 311.23 238.757 301.485 245.989 301.485C248.6 301.485 250.839 303.036 250.837 305.988C250.832 313.23 242.474 319.648 233.371 319.648ZM233.779 277.119C230.427 277.119 227.664 274.39 227.667 271.062C227.669 267.733 230.432 265.004 233.789 265.004C237.146 265.004 239.906 267.73 239.903 271.062C239.9 274.388 237.136 277.119 233.779 277.119Z" fill="#E5E7EB"/>
<path d="M179.277 279.168C188.826 279.168 198.222 283.521 198.213 293.933C198.205 303.535 187.087 307.227 184.697 310.697C182.903 313.277 183.498 316.904 178.575 316.904C175.367 316.904 173.803 314.321 173.805 311.958C173.812 303.165 186.865 301.175 186.871 293.935C186.875 289.949 184.197 287.586 179.719 287.586C170.171 287.586 173.891 297.331 166.659 297.331C164.049 297.331 161.809 295.78 161.812 292.828C161.816 285.586 170.174 279.168 179.277 279.168ZM178.87 321.698C182.221 321.698 184.985 324.426 184.982 327.755C184.979 331.083 182.216 333.812 178.859 333.812C175.502 333.812 172.743 331.087 172.746 327.755C172.748 324.428 175.513 321.698 178.87 321.698Z" fill="#D1D5DB"/>
<path d="M152.415 319.648C142.867 319.648 133.47 315.295 133.479 304.884C133.487 295.282 144.605 291.589 146.995 288.12C148.79 285.539 148.194 281.913 153.118 281.913C156.325 281.913 157.89 284.495 157.888 286.858C157.88 295.651 144.827 297.641 144.821 304.882C144.818 308.867 147.495 311.23 151.973 311.23C161.522 311.23 157.801 301.485 165.033 301.485C167.644 301.485 169.883 303.036 169.881 305.988C169.876 313.23 161.518 319.648 152.415 319.648ZM152.823 277.119C149.471 277.119 146.708 274.39 146.711 271.062C146.713 267.733 149.476 265.004 152.833 265.004C156.19 265.004 158.95 267.73 158.947 271.062C158.944 274.388 156.18 277.119 152.823 277.119Z" fill="#E5E7EB"/>
<path d="M207.059 262.979C197.51 262.979 188.114 258.626 188.123 248.214C188.131 238.612 199.249 234.919 201.639 231.45C203.433 228.869 202.838 225.243 207.761 225.243C210.969 225.243 212.533 227.825 212.531 230.188C212.524 238.981 199.471 240.971 199.465 248.212C199.461 252.197 202.139 254.56 206.617 254.56C216.165 254.56 212.445 244.816 219.677 244.816C222.287 244.816 224.527 246.366 224.524 249.318C224.52 256.561 216.162 262.979 207.059 262.979ZM207.466 220.449C204.114 220.449 201.351 217.72 201.354 214.392C201.357 211.063 204.119 208.335 207.476 208.335C210.834 208.335 213.593 211.06 213.59 214.392C213.588 217.718 210.823 220.449 207.466 220.449Z" fill="#E5E7EB"/>
<path d="M233.921 222.498C243.469 222.498 252.866 226.851 252.857 237.263C252.849 246.865 241.731 250.557 239.341 254.027C237.546 256.607 238.142 260.234 233.218 260.234C230.011 260.234 228.446 257.651 228.448 255.288C228.456 246.495 241.509 244.505 241.515 237.265C241.518 233.279 238.841 230.916 234.363 230.916C224.814 230.916 228.535 240.661 221.303 240.661C218.692 240.661 216.453 239.11 216.455 236.158C216.46 228.916 224.818 222.498 233.921 222.498ZM233.513 265.028C236.865 265.028 239.628 267.756 239.625 271.085C239.623 274.413 236.86 277.142 233.503 277.142C230.146 277.142 227.386 274.417 227.389 271.085C227.392 267.758 230.156 265.028 233.513 265.028Z" fill="#D1D5DB"/>
<path d="M126.105 262.979C116.556 262.979 107.16 258.626 107.168 248.214C107.177 238.612 118.295 234.919 120.685 231.45C122.479 228.869 121.884 225.243 126.807 225.243C130.015 225.243 131.579 227.825 131.577 230.188C131.57 238.981 118.517 240.971 118.511 248.212C118.507 252.197 121.184 254.56 125.663 254.56C135.211 254.56 131.491 244.816 138.722 244.816C141.333 244.816 143.573 246.366 143.57 249.318C143.566 256.561 135.207 262.979 126.105 262.979ZM126.512 220.449C123.16 220.449 120.397 217.72 120.4 214.392C120.403 211.063 123.165 208.335 126.522 208.335C129.879 208.335 132.639 211.06 132.636 214.392C132.633 217.718 129.869 220.449 126.512 220.449Z" fill="#E5E7EB"/>
<path d="M152.967 222.498C162.515 222.498 171.912 226.851 171.903 237.263C171.895 246.865 160.777 250.557 158.387 254.027C156.592 256.607 157.188 260.234 152.264 260.234C149.057 260.234 147.492 257.651 147.494 255.288C147.502 246.495 160.555 244.505 160.561 237.265C160.564 233.279 157.887 230.916 153.409 230.916C143.86 230.916 147.58 240.661 140.349 240.661C137.738 240.661 135.499 239.11 135.501 236.158C135.505 228.916 143.864 222.498 152.967 222.498ZM152.559 265.028C155.911 265.028 158.674 267.756 158.671 271.085C158.669 274.413 155.906 277.142 152.549 277.142C149.192 277.142 146.432 274.417 146.435 271.085C146.438 267.758 149.202 265.028 152.559 265.028Z" fill="#D1D5DB"/>
<path d="M421.589 376.312C412.041 376.312 402.644 371.96 402.653 361.548C402.661 351.946 413.779 348.253 416.169 344.784C417.963 342.203 417.368 338.577 422.292 338.577C425.499 338.577 427.064 341.159 427.062 343.522C427.054 352.315 414.001 354.305 413.995 361.546C413.992 365.531 416.669 367.894 421.147 367.894C430.695 367.894 426.975 358.15 434.207 358.15C436.817 358.15 439.057 359.7 439.055 362.652C439.05 369.895 430.692 376.312 421.589 376.312ZM421.996 333.783C418.645 333.783 415.882 331.054 415.884 327.726C415.887 324.397 418.65 321.669 422.007 321.669C425.364 321.669 428.123 324.394 428.121 327.726C428.118 331.052 425.353 333.783 421.996 333.783Z" fill="#E5E7EB"/>
<path d="M340.633 376.312C331.085 376.312 321.688 371.96 321.697 361.548C321.705 351.946 332.823 348.253 335.213 344.784C337.007 342.203 336.412 338.577 341.336 338.577C344.543 338.577 346.108 341.159 346.106 343.522C346.098 352.315 333.045 354.305 333.039 361.546C333.035 365.531 335.713 367.894 340.191 367.894C349.739 367.894 346.019 358.15 353.251 358.15C355.861 358.15 358.101 359.7 358.099 362.652C358.094 369.895 349.736 376.312 340.633 376.312ZM341.04 333.783C337.689 333.783 334.925 331.054 334.928 327.726C334.931 324.397 337.694 321.669 341.051 321.669C344.408 321.669 347.167 324.394 347.165 327.726C347.162 331.052 344.397 333.783 341.04 333.783Z" fill="#E5E7EB"/>
<path d="M369.52 165.834C379.069 165.834 388.465 170.187 388.457 180.599C388.448 190.201 377.33 193.893 374.94 197.363C373.146 199.943 373.741 203.57 368.818 203.57C365.61 203.57 364.046 200.987 364.048 198.624C364.055 189.831 377.108 187.841 377.114 180.601C377.118 176.615 374.441 174.252 369.962 174.252C360.414 174.252 364.134 183.997 356.903 183.997C354.292 183.997 352.052 182.446 352.055 179.494C352.059 172.252 360.418 165.834 369.52 165.834ZM369.113 208.364C372.465 208.364 375.228 211.092 375.225 214.421C375.222 217.749 372.46 220.478 369.103 220.478C365.746 220.478 362.986 217.753 362.989 214.421C362.992 211.094 365.756 208.364 369.113 208.364Z" fill="#D1D5DB"/>
<path d="M342.658 206.314C333.11 206.314 323.713 201.961 323.722 191.55C323.73 181.948 334.848 178.255 337.238 174.786C339.033 172.205 338.437 168.579 343.361 168.579C346.568 168.579 348.133 171.161 348.131 173.524C348.123 182.317 335.07 184.307 335.064 191.548C335.061 195.533 337.738 197.896 342.216 197.896C351.765 197.896 348.045 188.151 355.276 188.151C357.887 188.151 360.126 189.702 360.124 192.654C360.12 199.897 351.761 206.314 342.658 206.314ZM343.066 163.785C339.714 163.785 336.951 161.056 336.954 157.728C336.956 154.399 339.719 151.67 343.076 151.67C346.433 151.67 349.193 154.396 349.19 157.728C349.187 161.054 346.423 163.785 343.066 163.785Z" fill="#E5E7EB"/>
<path d="M288.565 165.834C298.114 165.834 307.51 170.187 307.501 180.599C307.493 190.201 296.375 193.893 293.985 197.363C292.191 199.943 292.786 203.57 287.863 203.57C284.655 203.57 283.091 200.987 283.093 198.624C283.1 189.831 296.153 187.841 296.159 180.601C296.163 176.615 293.486 174.252 289.007 174.252C279.459 174.252 283.179 183.997 275.947 183.997C273.337 183.997 271.097 182.446 271.1 179.494C271.104 172.252 279.463 165.834 288.565 165.834ZM288.158 208.364C291.51 208.364 294.273 211.092 294.27 214.421C294.267 217.749 291.505 220.478 288.148 220.478C284.791 220.478 282.031 217.753 282.034 214.421C282.036 211.094 284.801 208.364 288.158 208.364Z" fill="#D1D5DB"/>
<path d="M261.703 206.314C252.155 206.314 242.758 201.961 242.767 191.55C242.775 181.948 253.893 178.255 256.283 174.786C258.078 172.205 257.482 168.579 262.406 168.579C265.613 168.579 267.178 171.161 267.176 173.524C267.168 182.317 254.115 184.307 254.109 191.548C254.106 195.533 256.783 197.896 261.261 197.896C270.81 197.896 267.089 188.151 274.321 188.151C276.932 188.151 279.171 189.702 279.169 192.654C279.164 199.897 270.806 206.314 261.703 206.314ZM262.111 163.785C258.759 163.785 255.996 161.056 255.999 157.728C256.001 154.399 258.764 151.67 262.121 151.67C265.478 151.67 268.238 154.396 268.235 157.728C268.232 161.054 265.468 163.785 262.111 163.785Z" fill="#E5E7EB"/>
<path d="M422.144 279.17C431.692 279.17 441.088 283.523 441.08 293.935C441.071 303.536 429.953 307.229 427.563 310.699C425.769 313.279 426.365 316.906 421.441 316.906C418.233 316.906 416.669 314.323 416.671 311.96C416.678 303.167 429.731 301.177 429.738 293.937C429.741 289.951 427.064 287.588 422.585 287.588C413.037 287.588 416.757 297.333 409.526 297.333C406.915 297.333 404.675 295.782 404.678 292.83C404.682 285.588 413.041 279.17 422.144 279.17ZM421.736 321.699C425.088 321.699 427.851 324.428 427.848 327.757C427.845 331.085 425.083 333.814 421.726 333.814C418.369 333.814 415.609 331.089 415.612 327.757C415.615 324.43 418.379 321.699 421.736 321.699Z" fill="#D1D5DB"/>
<path d="M395.281 319.65C385.733 319.65 376.336 315.297 376.345 304.885C376.353 295.284 387.471 291.591 389.861 288.122C391.656 285.541 391.06 281.915 395.984 281.915C399.191 281.915 400.756 284.497 400.754 286.86C400.746 295.653 387.693 297.643 387.687 304.884C387.684 308.869 390.361 311.232 394.84 311.232C404.388 311.232 400.668 301.487 407.899 301.487C410.51 301.487 412.749 303.038 412.747 305.99C412.743 313.232 404.384 319.65 395.281 319.65ZM395.689 277.121C392.337 277.121 389.574 274.392 389.577 271.064C389.58 267.735 392.342 265.006 395.699 265.006C399.056 265.006 401.816 267.732 401.813 271.064C401.81 274.39 399.046 277.121 395.689 277.121Z" fill="#E5E7EB"/>
<path d="M341.186 279.168C350.734 279.168 360.13 283.521 360.122 293.933C360.113 303.535 348.995 307.227 346.605 310.697C344.811 313.277 345.407 316.904 340.483 316.904C337.275 316.904 335.711 314.321 335.713 311.958C335.72 303.165 348.773 301.175 348.78 293.935C348.783 289.949 346.106 287.586 341.627 287.586C332.079 287.586 335.799 297.331 328.568 297.331C325.957 297.331 323.717 295.78 323.72 292.828C323.724 285.586 332.083 279.168 341.186 279.168ZM340.778 321.698C344.13 321.698 346.893 324.426 346.89 327.755C346.887 331.083 344.125 333.812 340.768 333.812C337.411 333.812 334.651 331.087 334.654 327.755C334.657 324.428 337.421 321.698 340.778 321.698Z" fill="#D1D5DB"/>
<path d="M314.323 319.648C304.775 319.648 295.378 315.295 295.387 304.884C295.395 295.282 306.513 291.589 308.903 288.12C310.698 285.539 310.102 281.913 315.026 281.913C318.233 281.913 319.798 284.495 319.796 286.858C319.788 295.651 306.735 297.641 306.729 304.882C306.726 308.867 309.403 311.23 313.882 311.23C323.43 311.23 319.71 301.485 326.941 301.485C329.552 301.485 331.791 303.036 331.789 305.988C331.785 313.23 323.426 319.648 314.323 319.648ZM314.731 277.119C311.379 277.119 308.616 274.39 308.619 271.062C308.622 267.733 311.384 265.004 314.741 265.004C318.098 265.004 320.858 267.73 320.855 271.062C320.852 274.388 318.088 277.119 314.731 277.119Z" fill="#E5E7EB"/>
<path d="M368.968 262.979C359.42 262.979 350.023 258.626 350.032 248.214C350.04 238.612 361.158 234.919 363.548 231.45C365.342 228.869 364.747 225.243 369.671 225.243C372.878 225.243 374.442 227.825 374.44 230.188C374.433 238.981 361.38 240.971 361.374 248.212C361.37 252.197 364.048 254.56 368.526 254.56C378.074 254.56 374.354 244.816 381.586 244.816C384.196 244.816 386.436 246.366 386.433 249.318C386.429 256.561 378.071 262.979 368.968 262.979ZM369.375 220.449C366.024 220.449 363.26 217.72 363.263 214.392C363.266 211.063 366.029 208.335 369.386 208.335C372.743 208.335 375.502 211.06 375.5 214.392C375.497 217.718 372.732 220.449 369.375 220.449Z" fill="#E5E7EB"/>
<path d="M395.83 222.498C405.378 222.498 414.775 226.851 414.766 237.263C414.758 246.865 403.64 250.557 401.25 254.027C399.456 256.607 400.051 260.234 395.127 260.234C391.92 260.234 390.355 257.651 390.357 255.288C390.365 246.495 403.418 244.505 403.424 237.265C403.427 233.279 400.75 230.916 396.272 230.916C386.724 230.916 390.444 240.661 383.212 240.661C380.601 240.661 378.362 239.11 378.364 236.158C378.369 228.916 386.727 222.498 395.83 222.498ZM395.422 265.028C398.774 265.028 401.537 267.756 401.535 271.085C401.532 274.413 398.769 277.142 395.412 277.142C392.055 277.142 389.295 274.417 389.298 271.085C389.301 267.758 392.065 265.028 395.422 265.028Z" fill="#D1D5DB"/>
<path d="M288.013 262.979C278.464 262.979 269.068 258.626 269.077 248.214C269.085 238.612 280.203 234.919 282.593 231.45C284.387 228.869 283.792 225.243 288.715 225.243C291.923 225.243 293.487 227.825 293.485 230.188C293.478 238.981 280.425 240.971 280.419 248.212C280.415 252.197 283.093 254.56 287.571 254.56C297.119 254.56 293.399 244.816 300.631 244.816C303.241 244.816 305.481 246.366 305.478 249.318C305.474 256.561 297.116 262.979 288.013 262.979ZM288.42 220.449C285.069 220.449 282.305 217.72 282.308 214.392C282.311 211.063 285.074 208.335 288.431 208.335C291.788 208.335 294.547 211.06 294.544 214.392C294.542 217.718 291.777 220.449 288.42 220.449Z" fill="#E5E7EB"/>
<path d="M314.875 222.498C324.423 222.498 333.82 226.851 333.811 237.263C333.803 246.865 322.685 250.557 320.295 254.027C318.501 256.607 319.096 260.234 314.172 260.234C310.965 260.234 309.4 257.651 309.402 255.288C309.41 246.495 322.463 244.505 322.469 237.265C322.472 233.279 319.795 230.916 315.317 230.916C305.768 230.916 309.489 240.661 302.257 240.661C299.646 240.661 297.407 239.11 297.409 236.158C297.414 228.916 305.772 222.498 314.875 222.498ZM314.467 265.028C317.819 265.028 320.582 267.756 320.58 271.085C320.577 274.413 317.814 277.142 314.457 277.142C311.1 277.142 308.34 274.417 308.343 271.085C308.346 267.758 311.11 265.028 314.467 265.028Z" fill="#D1D5DB"/>
</g>
<defs>
<clipPath id="clip0_910_4000">
<rect width="670" height="328" fill="white"/>
</clipPath>
</defs>
</svg>