<?xml version="1.0" encoding="UTF-8"?>
<svg width="500px" height="500px" viewBox="0 0 500 500" version="1.1" xmlns="http://www.w3.org/2000/svg" xmlns:xlink="http://www.w3.org/1999/xlink">
    <title>画板</title>
    <g id="画板" stroke="none" stroke-width="1" fill="none" fill-rule="evenodd">
        <circle id="椭圆形" fill="#212121" cx="250" cy="250" r="250"></circle>
        <g id="A" transform="translate(122.119900, 193.000000)" fill="#FFFFFF" fill-rule="nonzero">
            <path d="M100.203542,0 L0,271.92449 C2.62753371,273.457096 4.51908241,274.557517 5.6746461,275.225753 C7.02683706,276.007693 14.0941494,279.694819 17.0387636,281.206122 C23.0921026,284.312956 22.1077324,283.702135 28.5824465,286.594284 C32.8989225,288.522384 36.3738853,289.911115 39.0073347,290.760478 L60.6189725,227.885154 L192.710961,227.885154 L215.948557,291.205848 C221.429049,289.137859 228.50836,286.042542 237.18649,281.919897 C245.864621,277.797252 252.508315,274.140443 257.117572,270.94947 L153.556658,0 L100.203542,0 Z M74.8177855,189.187675 L126.019566,50.3067227 L127.740634,50.3067227 L178.512148,189.187675 L74.8177855,189.187675 Z" id="形状"></path>
        </g>
        <g id="D" transform="translate(272.914023, 153.675174)" fill="#FFFFFF" fill-rule="nonzero">
            <path d="M20.0122102,15.8247197 L20.0122102,153.443767 L69.7401014,153.443767 C91.9056342,153.443767 108.674342,147.275967 120.238968,134.940366 C131.225362,122.990253 136.814931,106.221545 136.814931,84.6342435 C136.814931,62.8541981 131.418106,46.0854906 120.624455,34.5208648 C109.059829,21.9925201 92.2911218,15.8247197 70.1255889,15.8247197 L20.0122102,15.8247197 Z M41.0212805,33.7498897 L66.2707136,33.7498897 C83.6176524,33.7498897 96.3387408,37.7975088 104.433979,46.0854906 C112.143729,54.1807287 116.191349,66.9018172 116.191349,84.6342435 C116.191349,101.981182 112.143729,114.702271 104.241235,122.990253 C96.145997,131.278234 83.2321648,135.518597 65.8852261,135.518597 L41.0212805,135.518597 L41.0212805,33.7498897 Z" id="形状" transform="translate(78.413571, 84.634243) rotate(-20.000000) translate(-78.413571, -84.634243) "></path>
        </g>
        <g id="D备份" transform="translate(66.698603, 153.675174)" fill="#FFFFFF" fill-rule="nonzero">
            <path d="M20.0122102,15.8247197 L20.0122102,153.443767 L69.7401014,153.443767 C91.9056342,153.443767 108.674342,147.275967 120.238968,134.940366 C131.225362,122.990253 136.814931,106.221545 136.814931,84.6342435 C136.814931,62.8541981 131.418106,46.0854906 120.624455,34.5208648 C109.059829,21.9925201 92.2911218,15.8247197 70.1255889,15.8247197 L20.0122102,15.8247197 Z M41.0212805,33.7498897 L66.2707136,33.7498897 C83.6176524,33.7498897 96.3387408,37.7975088 104.433979,46.0854906 C112.143729,54.1807287 116.191349,66.9018172 116.191349,84.6342435 C116.191349,101.981182 112.143729,114.702271 104.241235,122.990253 C96.145997,131.278234 83.2321648,135.518597 65.8852261,135.518597 L41.0212805,135.518597 L41.0212805,33.7498897 Z" id="形状" transform="translate(78.413571, 84.634243) rotate(-160.000000) translate(-78.413571, -84.634243) "></path>
        </g>
    </g>
</svg>