<?xml version="1.0" encoding="UTF-8"?>
<svg fill="none"  width="104px" height="104px" viewBox="0 0 104 104" version="1.1" xmlns="http://www.w3.org/2000/svg" xmlns:xlink="http://www.w3.org/1999/xlink">
    <title>Sbar</title>
    <g id="页面-1" stroke="none" stroke-width="1" fill="#000" fill-rule="evenodd">
        <g id="Sbar" transform="translate(5.000000, 5.000000)">
            <path d="M13.2200256,0 L80.7799741,0 C88.0811926,0 94,5.91882588 94,13.2200677 L94,80.7799293 C94,84.2861098 92.6071808,87.6486865 90.127945,90.1279308 C87.6487091,92.607175 84.2861434,94 80.7799741,94 L13.2200256,94 C9.71385632,94 6.35129068,92.6071749 3.87205489,90.1279306 C1.3928191,87.6486864 0,84.2861097 0,80.7799293 L0,13.2200677 C0,5.91882602 5.91880715,0 13.2200256,0 Z" id="rect1298" stroke="none" fill="#000" stroke-linecap="round"></path>
            <g id="text_13" transform="translate(22.000000, 16.263453)" fill="#fff" fill-rule="evenodd">
                <g id="use495" transform="translate(24.000000, 29.368274) scale(-1, 1) rotate(-180.000000) translate(-24.000000, -29.368274) ">
                    <path d="M48,57.9972418 C48,58.7365473 47.4221509,58.7365473 47.2552167,58.7365473 C46.9341894,58.7365473 46.8443018,58.6473207 45.8683788,57.4236427 C45.3675762,56.8500436 42.0032103,52.6436502 41.9133226,52.5671703 C39.2038523,57.8315353 33.7849117,58.7365473 30.3306581,58.7365473 C19.8908507,58.7365473 10.4398074,49.3295221 10.4398074,40.1774299 C10.4398074,34.0972795 14.1380417,30.5409651 18.1701445,29.1643273 C19.0690209,28.8329145 23.9229535,27.5455032 26.388443,26.9719041 C30.5746388,25.8374525 31.6404494,25.5187864 33.3739968,23.7342559 C33.6950241,23.3263632 35.3386838,21.4653528 35.3386838,17.6668521 C35.3386838,10.133584 28.2760835,2.35812961 20.0577849,2.35812961 C13.3162119,2.35812961 5.84269663,5.18788514 5.84269663,14.2634975 C5.84269663,15.8058417 6.16372392,17.743332 6.42054575,18.5591174 C6.42054575,18.8013036 6.4975923,19.1964497 6.4975923,19.3621561 C6.4975923,19.6935689 6.33065811,20.0887149 5.67576244,20.0887149 C4.93097913,20.0887149 4.85393258,19.9357552 4.52006421,18.5591174 L0.333868379,1.95023692 C0.333868379,1.87375704 0,0.815785378 0,0.726558853 C0,0 0.667736758,0 0.821829856,0 C1.15569823,0 1.23274478,0.0764798792 2.22150883,1.30015795 L6.00963082,6.16937692 C7.97431782,3.25039487 12.2504013,0 19.8908507,0 C30.4975923,0 40.1926164,10.133584 40.1926164,20.2544214 C40.1926164,23.657776 39.3707865,26.6532379 36.2504013,29.6486998 C34.5168539,31.3440038 33.0401284,31.7518965 25.4767255,33.7021334 C19.9807384,35.1552512 19.2359551,35.3974374 17.7592295,36.6975954 C16.3595506,38.0742332 15.29374,40.0117235 15.29374,42.7649991 C15.29374,49.5717084 22.2792937,56.5313774 30.0866774,56.5313774 C38.1380417,56.5313774 41.9133226,51.6749051 41.9133226,43.9759306 C41.9133226,41.8727339 41.5024077,39.6930573 41.5024077,39.3616445 C41.5024077,38.6350857 42.1701445,38.6350857 42.4141252,38.6350857 C43.1460674,38.6350857 43.2359551,38.8772719 43.5569823,40.1774299 L48,57.9972418 Z" id="CMMI12-83"></path>
                </g>
            </g>
        </g>
    </g>
</svg>